<svg xmlns="http://www.w3.org/2000/svg" viewBox="0 0 847.39 156.88"><defs><style>.cls-1,.cls-18,.cls-27,.cls-9{font-size:17px;fill:#144577;font-family:Graphik-Medium, Graphik;}.cls-1{letter-spacing:0.09em;}.cls-2{letter-spacing:0.08em;}.cls-3{letter-spacing:0.1em;}.cls-4{letter-spacing:0.09em;}.cls-5{letter-spacing:0.09em;}.cls-6{letter-spacing:0.09em;}.cls-7{letter-spacing:0.1em;}.cls-8{fill:#ffd77e;}.cls-9{letter-spacing:0.1em;}.cls-10{letter-spacing:0.09em;}.cls-11{letter-spacing:0.08em;}.cls-12{letter-spacing:0.1em;}.cls-13{letter-spacing:0.09em;}.cls-14{letter-spacing:0.09em;}.cls-15{letter-spacing:0.09em;}.cls-16{letter-spacing:0.09em;}.cls-17,.cls-27{letter-spacing:0.09em;}.cls-18{letter-spacing:0.07em;}.cls-19{letter-spacing:0.1em;}.cls-20{letter-spacing:0.1em;}.cls-21{letter-spacing:0.1em;}.cls-22{letter-spacing:0.1em;}.cls-23{letter-spacing:0.09em;}.cls-24{letter-spacing:0.09em;}.cls-25{letter-spacing:0.1em;}.cls-26{letter-spacing:0.09em;}.cls-28{letter-spacing:0.08em;}.cls-29{letter-spacing:0.09em;}.cls-30{letter-spacing:0.1em;}.cls-31{letter-spacing:0.1em;}</style></defs><title>Recurso 20</title>
  <g id="Capa_2" data-name="Capa 2">
    <g id="Capa_1-2" data-name="Capa 1">

      <g id="_Grupo_" data-name="&lt;Grupo&gt;"><text class="cls-1" transform="translate(2.25 153.05)">T<tspan class="cls-2" x="11.44" y="0">R</tspan><tspan class="cls-3" x="23.97" y="0">O</tspan><tspan class="cls-4" x="39.49" y="0">B</tspan><tspan class="cls-5" x="51.91" y="0">A</tspan><tspan class="cls-3" x="65.38" y="0">D</tspan><tspan class="cls-6" x="79.2" y="0">E</tspan><tspan class="cls-7" x="90.7" y="0">S</tspan></text></g>
      <g id="_Grupo_2" data-name="&lt;Grupo&gt;"><path id="_Trazado_compuesto_" data-name="&lt;Trazado compuesto&gt;" class="cls-8" d="M91.81,73.7,85.25,57.47a2.12,2.12,0,0,0-3.94,1.59l4.6,11.38L72.74,64.63a2.13,2.13,0,0,0-1.69,0A31.12,31.12,0,0,1,58.78,67.1c-17.32,0-28.95-13.61-28.95-26.32,0-14.51,13-26.32,28.95-26.32s28.95,11.8,28.95,26.32a26.39,26.39,0,0,1-.29,3.73,2.12,2.12,0,0,0,4.2.63A30.59,30.59,0,0,0,92,40.79a29.19,29.19,0,0,0-9.79-21.67,35.26,35.26,0,0,0-46.81,0A29.16,29.16,0,0,0,25.7,38.19l0,.48-.4.27A24.36,24.36,0,0,0,14,59.12,23.32,23.32,0,0,0,18.62,73l.33.45-4.77,11.8a2.12,2.12,0,0,0,.49,2.32A2.15,2.15,0,0,0,17,88l13.52-6,.38.14A28.73,28.73,0,0,0,41,84h.14A28.71,28.71,0,0,0,55.39,80.1a26,26,0,0,0,9.1-8.86l.23-.38.44-.08A35.05,35.05,0,0,0,71.48,69l.38-.15L89,76.43A2.14,2.14,0,0,0,91.32,76,2.11,2.11,0,0,0,91.81,73.7ZM57.7,73A24,24,0,0,1,41,79.71h-.13a24.42,24.42,0,0,1-9.51-1.95,2.12,2.12,0,0,0-1.69,0L20.08,82l3.28-8.12A2.12,2.12,0,0,0,23,71.7a19.21,19.21,0,0,1-4.73-12.59,19.53,19.53,0,0,1,6.07-14l1.34-1.31L26,45.63A30.63,30.63,0,0,0,35,62,34,34,0,0,0,57,71.31l2.28.11Z"/><path id="_Trazado_" data-name="&lt;Trazado&gt;" class="cls-8" d="M45.57,48.53H73.13a2.12,2.12,0,0,0,0-4.25H45.57a2.12,2.12,0,1,0,0,4.25Z"/><path id="_Trazado_2" data-name="&lt;Trazado&gt;" class="cls-8" d="M73.67,37.61a2.12,2.12,0,0,0,0-4.25H45.57a2.12,2.12,0,1,0,0,4.25Z"/></g>

      <g id="_Grupo_3" data-name="&lt;Grupo&gt;"><text class="cls-9" transform="translate(207.05 153.05)">B<tspan class="cls-3" x="12.61" y="0">O</tspan><tspan class="cls-10" x="28.12" y="0">R</tspan><tspan class="cls-11" x="40.75" y="0">S</tspan><tspan class="cls-12" x="52.91" y="0">A </tspan><tspan class="cls-13" x="72.31" y="0">T</tspan><tspan class="cls-14" x="83.75" y="0">R</tspan><tspan class="cls-15" x="96.43" y="0">E</tspan><tspan class="cls-4" x="107.86" y="0">B</tspan><tspan class="cls-16" x="120.28" y="0">A</tspan><tspan class="cls-17" x="133.75" y="0">L</tspan><tspan class="cls-7" x="144.59" y="0">L</tspan></text></g>
      <g id="_Grupo_4" data-name="&lt;Grupo&gt;"><path id="_Trazado_compuesto_2" data-name="&lt;Trazado compuesto&gt;" class="cls-8" d="M327.27,59.67l-3.05-3a5.79,5.79,0,0,0-6.85-1l-5.76-5.75.28-.28a6,6,0,0,0,0-8.47,5.93,5.93,0,0,0-3-1.63,6.06,6.06,0,0,0,.24-1.68A6,6,0,0,0,304.36,32a6.05,6.05,0,0,0,.24-1.68,6,6,0,0,0-4.76-5.86,6,6,0,0,0-6.39-7.64L282,14.63c-1.74-.33-3.91-.55-5.28.7a3,3,0,0,0-.26.27A6,6,0,0,0,270.19,17a6,6,0,0,0-1.75,4.24,6.06,6.06,0,0,0,.24,1.68,6,6,0,0,0-4.76,5.86,6.05,6.05,0,0,0,.24,1.69,6,6,0,0,0-3.72,9.25,6,6,0,0,0-2.3,9.91l.28.28-5.75,5.74a5.78,5.78,0,0,0-6.54,1.13l-3.06,3a5.78,5.78,0,0,0,0,8.16l14.87,14.86a1.73,1.73,0,1,0,2.44-2.45L245.51,65.53a2.32,2.32,0,0,1,0-3.26l3.06-3a2.32,2.32,0,0,1,2.82-.35,1.7,1.7,0,0,0,.71.61L269.62,77a1.74,1.74,0,0,0,.35.5,1.71,1.71,0,0,0,.49.34,2.31,2.31,0,0,1-.1,3.16l-3.05,3A2.32,2.32,0,0,1,264,84l-3.81-3.81a1.73,1.73,0,1,0-2.45,2.44l3.82,3.82a5.79,5.79,0,0,0,8.15,0l3.05-3.05a5.78,5.78,0,0,0,.81-7.14l6.48-6.47,0,0c.74-.77,2.81-.62,4.8-.48a24.85,24.85,0,0,0,4.55,0l7.09,7.09a5.78,5.78,0,0,0,1,6.84l3.05,3.05a5.78,5.78,0,0,0,8.15,0l18.53-18.51a5.78,5.78,0,0,0,0-8.16ZM281.4,18l7.5,1.42-4.49,4.49a10.9,10.9,0,0,1-2.69-2,8,8,0,0,1-2.54-3.93h0a1.6,1.6,0,0,1,0-.17,5.85,5.85,0,0,1,2.23.15Zm-8.76,1.41a2.55,2.55,0,0,1,3.23-.31,12.37,12.37,0,0,0,3.47,5.35,12.81,12.81,0,0,0,5,3.09,2.54,2.54,0,0,1-3.88,3.24h0L272.63,23a2.54,2.54,0,0,1,0-3.58ZM268.12,27a2.55,2.55,0,0,1,3.59,0L278,33.25a2.54,2.54,0,0,1-3.6,3.59l-4.76-4.76,0,0-1.49-1.49a2.54,2.54,0,0,1,0-3.59Zm-4.53,7.54a2.56,2.56,0,0,1,3.58,0l4.78,4.77a2.54,2.54,0,0,1-3.59,3.58l-1.73-1.73h0l-3-3a2.54,2.54,0,0,1,0-3.59Zm-3,9.06a2.56,2.56,0,0,1,3.6,0l1.73,1.73a2.54,2.54,0,0,1-3.6,3.58l-.22-.22h0l-1.5-1.49a2.54,2.54,0,0,1,0-3.59Zm47.62,7.26a1.73,1.73,0,0,0-2.44,0L291.83,64.77c-1.46,1.46-4.11,1.28-6.67,1.1-2.78-.19-5.66-.39-7.52,1.52l-6.37,6.36-15.92-15.9L261,52.22a6,6,0,0,0,9.13-5.11v0h0a6,6,0,0,0,6-6v0h0a6,6,0,0,0,6-6h0a6,6,0,0,0,5.12-9.11L292.28,21a2.53,2.53,0,0,1,1.3-.69l.15,0a2.53,2.53,0,0,1,2.15,4.3l-1.5,1.5,0,0-1.73,1.73a1.73,1.73,0,1,0,2.44,2.45l1.51-1.51h0l.23-.23a2.55,2.55,0,0,1,3.59,0,2.54,2.54,0,0,1,0,3.58l-1.51,1.52h0l-1.73,1.73a1.73,1.73,0,0,0,2.44,2.45L301.33,36a2.54,2.54,0,0,1,3.59,3.59l-3,3a1.73,1.73,0,0,0,2.45,2.44l1.48-1.48,0,0a2.54,2.54,0,0,1,3.59,3.58l-1.5,1.5h0l-2.39,2.38A1.73,1.73,0,1,0,308,53.5l1.17-1.16,5.59,5.58-15.92,15.9-5.7-5.7a6.8,6.8,0,0,0,1.14-.91L308.2,53.29a1.73,1.73,0,0,0,0-2.44Zm16.63,14.53L306.3,83.88a2.32,2.32,0,0,1-3.27,0L300,80.83a2.31,2.31,0,0,1,0-3.26l18.53-18.51a2.32,2.32,0,0,1,3.27,0l3.05,3a2.32,2.32,0,0,1,0,3.26Zm0,0"/><path id="_Trazado_compuesto_3" data-name="&lt;Trazado compuesto&gt;" class="cls-8" d="M252,74.64a1.73,1.73,0,0,0,0,2.45h0a1.73,1.73,0,1,0,0-2.45Zm0,0"/><path id="_Trazado_compuesto_4" data-name="&lt;Trazado compuesto&gt;" class="cls-8" d="M300,60.74a1.73,1.73,0,1,0-.78-3.27h0a1.73,1.73,0,0,0,.79,3.27Zm0,0"/></g>

      <g id="_Grupo_5" data-name="&lt;Grupo&gt;"><text class="cls-18" transform="translate(426.76 153.05)">A<tspan class="cls-19" x="13.1" y="0">C</tspan><tspan class="cls-20" x="27.42" y="0">C</tspan><tspan class="cls-6" x="41.78" y="0">É</tspan><tspan class="cls-7" x="53.27" y="0">S </tspan><tspan class="cls-21" x="71.52" y="0">C</tspan><tspan class="cls-3" x="85.83" y="0">O</tspan><tspan class="cls-22" x="101.35" y="0">N</tspan><tspan class="cls-23" x="115.69" y="0">F</tspan><tspan class="cls-15" x="126.64" y="0">E</tspan><tspan class="cls-24" x="138.07" y="0">R</tspan><tspan class="cls-15" x="150.75" y="0">È</tspan><tspan class="cls-7" x="162.18" y="0">N</tspan><tspan class="cls-25" x="176.55" y="0">C</tspan><tspan class="cls-26" x="190.86" y="0">I</tspan><tspan class="cls-6" x="197.68" y="0">E</tspan><tspan class="cls-12" x="209.18" y="0">S</tspan></text></g>
      <g id="_Grupo_6" data-name="&lt;Grupo&gt;"><path id="_Trazado_compuesto_5" data-name="&lt;Trazado compuesto&gt;" class="cls-8" d="M508.66,44v.59h-5.14a1.71,1.71,0,0,0-1.71,1.71v5.14h-1.71a1.71,1.71,0,0,0-1.71,1.71V60a1.71,1.71,0,0,0,1.71,1.71h1.71v4h3.43v-4h58.29V85.14H542.94v3.43h22.29a1.71,1.71,0,0,0,1.71-1.71V61.71h1.71A1.71,1.71,0,0,0,570.37,60V53.14a1.71,1.71,0,0,0-1.71-1.71h-1.71V40.85a13.42,13.42,0,0,0-13.42-13.42h-2V25.57a13.71,13.71,0,1,0-13.71,0v1.85h-2a13.42,13.42,0,0,0-13.42,13.42V51.43h-3.43V46.29a1.71,1.71,0,0,0-1.71-1.71h-5.14V44a21.52,21.52,0,0,1,4.78-13.57A5.25,5.25,0,1,0,514.37,28m4.57-4a1.71,1.71,0,1,1-1.71,1.71A1.72,1.72,0,0,1,518.94,24Zm34.2,16,2.93-8.78a10,10,0,0,1,7.45,9.65V51.43h-3.43V44.57h-3.43v6.86H546.37V38.77L550.75,41a1.71,1.71,0,0,0,1.42.05A1.72,1.72,0,0,0,553.14,40Zm-8.48-6.83-3.43-4.57V27a13.26,13.26,0,0,0,6.86,0v1.59Zm7.91-2.28L550.51,37l-3.25-1.63,3.39-4.53ZM544.66,3.43a10.3,10.3,0,0,1,10.11,8.44,14.71,14.71,0,0,1-8.6-4.21l-.29-.29a1.76,1.76,0,0,0-2.43,0l-.29.29a14.71,14.71,0,0,1-8.6,4.21A10.29,10.29,0,0,1,544.66,3.43ZM534.5,15.34a18.1,18.1,0,0,0,10.16-4.4,18.1,18.1,0,0,0,10.16,4.4,10.29,10.29,0,0,1-20.31,0Zm4.16,15.52,3.4,4.53L538.8,37l-2.05-6.15Zm-12.86,10a10,10,0,0,1,7.45-9.66L536.17,40a1.72,1.72,0,0,0,1,1,1.66,1.66,0,0,0,.66.13,1.73,1.73,0,0,0,.77-.18l4.38-2.19V51.43H532.66V44.57h-3.43v6.86H525.8ZM505.23,48h10.29v3.43H505.23Zm61.71,10.29H501.8V54.86h65.14Z"/><path id="_Trazado_3" data-name="&lt;Trazado&gt;" class="cls-8" d="M514.37,65.14v20H557.8v3.43H512.66a1.71,1.71,0,0,1-1.71-1.71V65.14Z"/></g>

      <g id="_Grupo_7" data-name="&lt;Grupo&gt;"><text class="cls-27" transform="translate(710.69 153.05)">P<tspan class="cls-28" x="11.83" y="0">R</tspan><tspan class="cls-3" x="24.36" y="0">OM</tspan><tspan class="cls-22" x="56.69" y="0">O</tspan><tspan class="cls-25" x="72.2" y="0">C</tspan><tspan class="cls-29" x="86.51" y="0">I</tspan><tspan class="cls-30" x="93.33" y="0">O</tspan><tspan class="cls-31" x="108.84" y="0">N</tspan><tspan class="cls-12" x="123.22" y="0">S</tspan></text></g>
      <path id="_Trazado_compuesto_6" data-name="&lt;Trazado compuesto&gt;" class="cls-8" d="M815.62,25.48a5.14,5.14,0,0,0-5.17-5.17,5.18,5.18,0,0,0-3.66,1.53c-.41.41-1.17,1.31-1.58,1.81a1.23,1.23,0,0,0,1.89,1.57c.65-.78,1.18-1.39,1.43-1.64a2.74,2.74,0,0,1,1.93-.81h0a2.68,2.68,0,0,1,2.69,2.7,2.74,2.74,0,0,1-.81,1.93A43.91,43.91,0,0,1,808,30.73a7.78,7.78,0,0,0-6.72-3.87h-18a9,9,0,0,0-6.43,2.66l-36,36a3.85,3.85,0,0,0,0,5.44L765,95a3.85,3.85,0,0,0,5.44,0l36-36a9,9,0,0,0,2.66-6.43v-18a7.78,7.78,0,0,0-.16-1.55,47,47,0,0,0,5.17-4A5.18,5.18,0,0,0,815.62,25.48Zm-9,9.16v18a6.59,6.59,0,0,1-1.94,4.69l-36,36a1.39,1.39,0,0,1-2,0L742.65,69.19a1.39,1.39,0,0,1,0-2l36-36a6.59,6.59,0,0,1,4.69-1.94h18A5.33,5.33,0,0,1,806,32.11c-1.45,1-3.08,2-4.8,3l-.17-.17a5.17,5.17,0,1,0,1.34,2.33c1.5-.87,2.94-1.76,4.27-2.63Zm-10.35,4.48a1.23,1.23,0,0,0,1.65.55q1.08-.54,2.15-1.13a2.7,2.7,0,1,1-1.14-2.18q-1,.57-2.11,1.11A1.23,1.23,0,0,0,796.26,39.13Z"/></g></g></svg>
