<svg xmlns="http://www.w3.org/2000/svg" viewBox="0 0 239.62 38.97"><defs><style>.cls-1{fill:#37ae92;}</style></defs><title>Recurso 5</title><g id="Capa_2" data-name="Capa 2"><g id="Capa_1-2" data-name="Capa 1"><g id="_Grupo_" data-name="&lt;Grupo&gt;"><path id="_Trazado_compuesto_" data-name="&lt;Trazado compuesto&gt;" class="cls-1" d="M0,38.84l0,0v0ZM8,.49H0V7.08A22,22,0,0,1,8,.49M36.53,38.84,44.58.49H27.29C31.52,2.81,34.23,7,34.23,13.12H28.54c0-6.71-4.37-10-10.61-10C6,3.11.13,14.07.13,24.38c0,8.27,4.08,14,12.64,14,7,0,11.38-4,13.24-10.66h5.69a20.33,20.33,0,0,1-6.16,11.16ZM66.77.49H50.28L42.22,38.84H58.79c-3.6-3.22-5.58-8.1-5.58-14.46C53.21,14,58.17,4.6,66.77.49m57.88,38.35V.49H86.05C90.29,2.81,93,7,93,13.12H87.3c0-6.71-4.37-10-10.61-10-11.92,0-17.8,11-17.8,21.27,0,8.27,4.07,14,12.64,14,7,0,11.39-4,13.24-10.66h5.69a20.32,20.32,0,0,1-6.16,11.16Z"/><path id="_Trazado_" data-name="&lt;Trazado&gt;" class="cls-1" d="M133.71,28h2.09V38.63h2.8V28H141V25.94H138.6v-1.3c0-1.06.61-1.33,1.37-1.33a4.68,4.68,0,0,1,1.3.15V21.28a7.77,7.77,0,0,0-2-.17c-1.82,0-3.51.54-3.51,3.78v1.05h-2.09Z"/><path id="_Trazado_compuesto_2" data-name="&lt;Trazado compuesto&gt;" class="cls-1" d="M148.51,36.77c-2.5,0-3.61-2.28-3.61-4.49s1.11-4.46,3.61-4.46,3.61,2.28,3.61,4.46-1.1,4.49-3.61,4.49m0,2.21c4.08,0,6.41-2.8,6.41-6.7s-2.33-6.68-6.41-6.68-6.41,2.8-6.41,6.68,2.33,6.7,6.41,6.7"/><path id="_Trazado_2" data-name="&lt;Trazado&gt;" class="cls-1" d="M157.24,38.63H160v-6c0-2.8,1.52-4.35,3.43-4.35a10,10,0,0,1,1.21.12v-2.7a6.9,6.9,0,0,0-1.06-.07,4.1,4.1,0,0,0-3.71,2.8h0V25.94h-2.63Z"/><path id="_Trazado_3" data-name="&lt;Trazado&gt;" class="cls-1" d="M165.87,38.63h2.8V31.1c0-2.12,1.33-3.29,2.78-3.29,1.69,0,2.23.93,2.23,2.67v8.15h2.8V31.19c0-2.13.81-3.39,2.7-3.39,2.18,0,2.31,1.4,2.31,3.41v7.41h2.8V29.87c0-3.09-1.57-4.27-4.25-4.27a4.58,4.58,0,0,0-4,2.11,3.6,3.6,0,0,0-3.56-2.11,4.24,4.24,0,0,0-3.9,2.11h-.07V25.94h-2.65Z"/><path id="_Trazado_compuesto_3" data-name="&lt;Trazado compuesto&gt;" class="cls-1" d="M195,34.36c0,1.77-1.92,2.4-3.14,2.4-1,0-2.58-.37-2.58-1.62,0-1.47,1.08-1.92,2.28-2.11s2.58-.2,3.44-.76Zm2.8-5.08c0-2.68-2.6-3.68-5.08-3.68-2.8,0-5.57,1-5.77,4.22h2.8c.12-1.37,1.23-2,2.8-2,1.13,0,2.63.27,2.63,1.72,0,1.65-1.79,1.43-3.81,1.79-2.36.27-4.88.79-4.88,4,0,2.48,2.06,3.71,4.34,3.71a6.49,6.49,0,0,0,4.39-1.55c.22,1.15,1,1.55,2.16,1.55a7.11,7.11,0,0,0,1.77-.32V36.71a3.93,3.93,0,0,1-.69,0c-.51,0-.66-.27-.66-1Z"/><path id="_Trazado_4" data-name="&lt;Trazado&gt;" class="cls-1" d="M199.58,28h2.11v7.49c.05,2.11.59,3.24,3.51,3.24.61,0,1.2-.1,1.82-.15V36.44a4.78,4.78,0,0,1-1.18.1c-1.25,0-1.35-.59-1.35-1.74V28H207V25.94h-2.53v-3.8h-2.8v3.8h-2.11Z"/><path id="_Trazado_compuesto_4" data-name="&lt;Trazado compuesto&gt;" class="cls-1" d="M209.1,38.63h2.8V25.94h-2.8Zm0-14.88h2.8V21.1h-2.8Z"/><path id="_Trazado_5" data-name="&lt;Trazado&gt;" class="cls-1" d="M226.08,25.94h-2.8V33.3c0,2-.79,3.46-3.12,3.46-1.52,0-2.43-.81-2.43-3V25.94h-2.8v8c0,3.31,1.42,5,4.74,5a4.26,4.26,0,0,0,3.6-2.11h0v1.77h2.75Z"/><path id="_Trazado_6" data-name="&lt;Trazado&gt;" class="cls-1" d="M228.33,34.55c0,3,2.43,4.42,5.62,4.42,2.63,0,5.67-1.11,5.67-4.12,0-2.5-2.06-3.24-4.1-3.71s-4.13-.66-4.13-2c0-1.1,1.5-1.3,2.31-1.3,1.23,0,2.33.37,2.58,1.69h2.92c-.34-2.82-2.7-3.9-5.3-3.9-2.31,0-5.3.86-5.3,3.63,0,2.58,2,3.31,4.08,3.76s4.08.64,4.15,2.11-1.77,1.67-2.82,1.67c-1.5,0-2.73-.59-2.87-2.21Z"/><path id="_Trazado_7" data-name="&lt;Trazado&gt;" class="cls-1" d="M145.6,9.08c-.27-3.12-2.77-4.59-5.72-4.59-4.17,0-6.26,3-6.26,6.82s2.18,6.56,6.16,6.56c3.26,0,5.3-1.82,5.82-5.11h-2.8a3,3,0,0,1-3,2.9c-2.43,0-3.36-2.24-3.36-4.35,0-3.85,2-4.61,3.49-4.61a2.68,2.68,0,0,1,2.89,2.38Z"/><path id="_Trazado_compuesto_5" data-name="&lt;Trazado compuesto&gt;" class="cls-1" d="M147.95,17.53h2.8V4.84h-2.8Zm0-14.87h2.8V0h-2.8Z"/><path id="_Trazado_8" data-name="&lt;Trazado&gt;" class="cls-1" d="M165.15,9.08c-.27-3.12-2.77-4.59-5.72-4.59-4.17,0-6.26,3-6.26,6.82s2.19,6.56,6.16,6.56c3.26,0,5.3-1.82,5.82-5.11h-2.8a3,3,0,0,1-3,2.9c-2.43,0-3.36-2.24-3.36-4.35,0-3.85,2-4.61,3.49-4.61a2.68,2.68,0,0,1,2.89,2.38Z"/><rect id="_Trazado_9" data-name="&lt;Trazado&gt;" class="cls-1" x="167.5" width="2.8" height="17.53"/><path id="_Trazado_compuesto_6" data-name="&lt;Trazado compuesto&gt;" class="cls-1" d="M184.85,11.91c.47-3.8-2-7.41-6-7.41-3.78,0-6.14,3.09-6.14,6.7,0,3.9,2.24,6.68,6.21,6.68a5.56,5.56,0,0,0,5.75-4.32H182a3,3,0,0,1-3.1,2.11c-2.33,0-3.41-1.77-3.41-3.76Zm-9.33-1.84a3.27,3.27,0,1,1,6.53,0Z"/><path id="_Trazado_10" data-name="&lt;Trazado&gt;" class="cls-1" d="M186.29,13.45c.05,3,2.43,4.42,5.62,4.42,2.63,0,5.67-1.11,5.67-4.12,0-2.51-2.06-3.24-4.1-3.71s-4.12-.66-4.12-2c0-1.1,1.5-1.3,2.31-1.3,1.23,0,2.33.37,2.58,1.69h2.92c-.34-2.82-2.7-3.9-5.3-3.9-2.31,0-5.31.86-5.31,3.63,0,2.58,2,3.31,4.08,3.76s4.08.64,4.15,2.11S193,15.66,192,15.66c-1.5,0-2.72-.59-2.87-2.21Z"/></g></g></g></svg>