<svg class="logo-cic float-left" fill="white" xmlns="http://www.w3.org/2000/svg" xmlns:xlink="http://www.w3.org/1999/xlink" x="0px" y="0px" viewBox="60 10.6 159.6 20.4" style="enable-background:new 60 10.6 159.6 20.4;" xml:space="preserve">
  <g> <g> <polygon points="69.7,10.9 60,14.3 60,31 65.1,31 65.1,14.2 74,10.9 "></polygon> <polygon id="XMLID_1290_" points="88,10.9 88,27.7 79.2,31 83.4,31 93.2,27.6 93.2,10.9 "></polygon> <path id="XMLID_1238_" d="M76.8,10.9l-9.8,3.4V31h5.3v-0.1l-0.1,0V14.2l0.1,0V14l8.3-3.1H76.8z M81.5,10.9v17L72.9,31 h3.6l9.8-3.4V10.9H81.5z"></path> <polygon id="XMLID_1235_" points="103.6,29.9 103.6,26.2 106.4,26.2 106.4,25.3 103.6,25.3 103.6,22.7 106.5,22.7 106.5,21.9 102.6,21.9 102.6,29.9 "></polygon> <path id="XMLID_1234_" d="M110.7,28c0,0.9-0.6,1.3-1.1,1.3c-0.6,0-0.9-0.5-0.9-1.1v-3.9h-0.9v4.3c0,1,0.5,1.4,1.5,1.4 c0.6,0,1.1-0.3,1.4-0.8h0v0.7h0.9c0-0.4-0.1-0.8-0.1-1.2v-4.4h-0.9V28z"></path> <path id="XMLID_1233_" d="M117.4,29.9V26c0-1.1-0.3-1.8-1.5-1.8c-0.7,0-1.1,0.2-1.5,0.8h0v-0.7h-0.9 c0,0.4,0.1,0.8,0.1,1.2v4.4h0.9v-3.3c0-0.8,0.1-1.7,1.1-1.7c0.8,0,1,0.5,1,1.1v3.9H117.4z"></path> <path id="XMLID_1224_" d="M122.2,24.8L122.2,24.8c-0.3-0.4-0.7-0.7-1.2-0.7c-1.8,0-1.8,1.6-1.8,3 c0,2.5,0.9,2.8,1.8,2.8c0.6,0,1-0.3,1.3-0.8h0v0.7h0.9v-8h-0.9V24.8z M122.2,26.8c0,1.1,0,2.4-1,2.4c-1.1,0-1.1-1.2-1.1-2.1 c0-1.5,0.1-2.3,1.1-2.3C122.1,24.9,122.2,26.1,122.2,26.8"></path> <path id="XMLID_1210_" d="M127.9,29.9h1c-0.1-0.4-0.1-0.9-0.1-1.3v-2.7c0-0.9-0.4-1.7-1.8-1.7c-1.2,0-1.8,0.4-1.9,1.7 h1c-0.1-0.6,0.3-1,0.9-1c1,0,0.9,0.8,0.9,1.6c-1.3,0-2.9,0-2.9,1.7c0,1.1,0.3,1.8,1.5,1.8c0.7,0,1.1-0.3,1.4-0.9h0V29.9z M127.8,27.1c0.1,1.8-0.6,2.2-1.1,2.2c-0.6,0-0.9-0.5-0.9-1C125.8,27,127,27.1,127.8,27.1"></path> <path id="XMLID_1209_" d="M134.6,26.1c0.1-1.3-0.6-1.9-1.7-1.9c-1.9,0-2.1,1.4-2.1,3c0,2.5,0.9,2.8,2.1,2.8 c0.6,0,1.8-0.4,1.7-2h-0.9c0,1-0.6,1.2-0.8,1.2c-0.9,0-1.2-0.7-1.2-2.5c0-1.5,0.5-1.9,1.2-1.9c0.3,0,0.8,0.2,0.8,1.2H134.6z"></path> <path id="XMLID_1174_" d="M136.5,22.8h1v-1h-1V22.8z M137.4,24.3h-0.9v5.6h0.9V24.3z"></path> <path id="XMLID_1159_" d="M141.2,30c1.2,0,2.1-0.4,2.1-2.8c0-1.6-0.2-3-2.1-3c-1.9,0-2.1,1.4-2.1,3 C139.1,29.6,140.1,30,141.2,30 M141.2,29.2c-0.9,0-1.2-0.7-1.2-2.5c0-1.5,0.5-1.9,1.2-1.9c0.7,0,1.2,0.3,1.2,1.9 C142.4,28.6,142.2,29.2,141.2,29.2 M141.3,21.9l-1,1.6h0.7l1.4-1.6H141.3z"></path> <path id="XMLID_1152_" d="M149,29.9v-3.5h1.3c0.8,0,2.2-0.4,2.2-2.2c0-1.9-1.1-2.3-2.2-2.3H148v8H149z M149,22.7h1.4 c0.2,0,1.1,0.1,1.1,1.3c0,1.3-1,1.4-1.4,1.4H149V22.7z"></path> <path id="XMLID_1150_" d="M155.1,24.3h-0.9v5.6h0.9v-3.3c0-0.8,0.3-1.5,1.2-1.5c0.2,0,0.3,0,0.5,0.1v-0.9 c-0.9,0-1.3,0.1-1.7,1h0V24.3z"></path> <path id="XMLID_1136_" d="M158,22.8h1v-1h-1V22.8z M159,24.3h-0.9v5.6h0.9V24.3z"></path> <polygon id="XMLID_1135_" points="161.9,29.9 163,29.9 164.7,24.3 163.8,24.3 162.5,29 162.4,29 161.2,24.3 160.2,24.3 "></polygon> <path id="XMLID_1132_" d="M168.8,29.9h1c-0.1-0.4-0.1-0.9-0.1-1.3v-2.7c0-0.9-0.4-1.7-1.8-1.7c-1.2,0-1.8,0.4-1.9,1.7 h1c-0.1-0.6,0.3-1,0.9-1c1,0,0.9,0.8,0.9,1.6c-1.3,0-2.9,0-2.9,1.7c0,1.1,0.3,1.8,1.5,1.8c0.7,0,1.1-0.3,1.4-0.9h0V29.9z M168.8,27.1c0.1,1.8-0.6,2.2-1.1,2.2c-0.6,0-0.9-0.5-0.9-1C166.8,27,168,27.1,168.8,27.1"></path> <path id="XMLID_1129_" d="M174.7,24.8L174.7,24.8c-0.3-0.4-0.7-0.7-1.2-0.7c-1.8,0-1.8,1.6-1.8,3 c0,2.5,0.9,2.8,1.8,2.8c0.6,0,1-0.3,1.3-0.8h0v0.7h0.9v-8h-0.9V24.8z M174.7,26.8c0,1.1,0,2.4-1,2.4c-1.1,0-1.1-1.2-1.1-2.1 c0-1.5,0.1-2.3,1.1-2.3C174.6,24.9,174.7,26.1,174.7,26.8"></path> <path id="XMLID_1126_" d="M180.4,29.9h1c-0.1-0.4-0.1-0.9-0.1-1.3v-2.7c0-0.9-0.4-1.7-1.8-1.7c-1.2,0-1.8,0.4-1.9,1.7 h1c-0.1-0.6,0.3-1,0.9-1c1,0,0.9,0.8,0.9,1.6c-1.3,0-2.9,0-2.9,1.7c0,1.1,0.3,1.8,1.5,1.8c0.7,0,1.1-0.3,1.4-0.9h0V29.9z M180.3,27.1c0.1,1.8-0.6,2.2-1.1,2.2c-0.6,0-0.9-0.5-0.9-1C178.3,27,179.5,27.1,180.3,27.1"></path> <rect id="XMLID_1108_" x="102.8" y="10.8" width="1" height="8"></rect> <path id="XMLID_1106_" d="M109.8,18.8v-3.9c0-1.1-0.3-1.8-1.5-1.8c-0.7,0-1.1,0.2-1.5,0.8h0v-0.7h-0.9 c0,0.4,0.1,0.8,0.1,1.2v4.4h0.9v-3.3c0-0.8,0.1-1.7,1.1-1.7c0.8,0,1,0.5,1,1.1v3.9H109.8z"></path> <path id="XMLID_1104_" d="M115.2,17.2c0-1.7-2.7-1.7-2.7-2.7c0-0.5,0.4-0.8,0.8-0.8c0.6,0,0.9,0.3,0.9,0.9h1 c0.1-1.1-0.8-1.6-1.7-1.6c-1.5,0-1.9,0.9-1.9,1.5c0,1.7,2.7,1.7,2.7,2.7c0,0.6-0.4,0.9-0.9,0.9c-0.9,0-0.9-0.8-0.9-1.1h-1 c0,1.3,0.7,1.8,1.9,1.8C114.4,18.9,115.2,18.4,115.2,17.2"></path> <path id="XMLID_1095_" d="M116,13.2v0.7h0.9v4c0,0.6,0.4,1,1.2,1c0.3,0,0.6-0.1,0.9-0.1v-0.7c-0.2,0-0.3,0-0.4,0 c-0.8,0-0.8-0.5-0.8-0.8v-3.4h1.2v-0.7h-1.2v-1.5l-0.9,0.4v1.1H116z"></path> <path id="XMLID_1091_" d="M120.1,11.7h1v-1h-1V11.7z M121.1,13.2h-0.9v5.6h0.9V13.2z"></path> <path id="XMLID_1046_" d="M122.1,13.2v0.7h0.9v4c0,0.6,0.4,1,1.2,1c0.3,0,0.6-0.1,0.9-0.1v-0.7c-0.2,0-0.3,0-0.4,0 c-0.8,0-0.8-0.5-0.8-0.8v-3.4h1.2v-0.7h-1.2v-1.5l-0.9,0.4v1.1H122.1z"></path> <path id="XMLID_1042_" d="M129.2,16.9c0,0.9-0.6,1.3-1.1,1.3c-0.6,0-0.9-0.5-0.9-1.1v-3.9h-0.9v4.3 c0,1,0.5,1.4,1.5,1.4c0.6,0,1.1-0.3,1.4-0.8h0v0.7h0.9c0-0.4-0.1-0.8-0.1-1.2v-4.4h-0.9V16.9z"></path> <path id="XMLID_1016_" d="M135.8,15c0.1-1.3-0.6-1.9-1.7-1.9c-1.9,0-2.1,1.4-2.1,3c0,2.5,0.9,2.8,2.1,2.8 c0.6,0,1.8-0.4,1.7-2H135c0,1-0.6,1.2-0.8,1.2c-0.9,0-1.2-0.7-1.2-2.5c0-1.5,0.5-1.9,1.2-1.9c0.3,0,0.8,0.2,0.8,1.2H135.8z"></path> <path id="XMLID_992_" d="M137.7,11.7h1v-1h-1V11.7z M138.7,13.2h-0.9v5.6h0.9V13.2z"></path> <path id="XMLID_985_" d="M142.5,18.9c1.2,0,2.1-0.4,2.1-2.8c0-1.6-0.2-3-2.1-3c-1.9,0-2.1,1.4-2.1,3 C140.4,18.5,141.3,18.9,142.5,18.9 M142.5,18.1c-0.9,0-1.2-0.7-1.2-2.5c0-1.5,0.5-1.9,1.2-1.9s1.2,0.3,1.2,1.9 C143.6,17.5,143.4,18.1,142.5,18.1 M142.6,10.8l-1,1.6h0.7l1.4-1.6H142.6z"></path> <path id="XMLID_983_" d="M153.6,13c0.1-1.6-0.5-2.4-2.1-2.4c-1.5,0-2.5,0.6-2.5,2.9v2.3c0,3.1,1.5,3.2,2.5,3.2 c0.5,0,2.3,0,2.2-2.5h-1c0,1.6-0.9,1.7-1.2,1.7c-0.8,0-1.4-0.2-1.4-2.2v-2.1c0-1.4,0.2-1.6,0.2-1.7c0-0.1,0.4-0.6,1.2-0.6 c0.2,0,0.7,0.1,0.9,0.3c0.2,0.3,0.2,0.7,0.2,1.2H153.6z"></path> <path id="XMLID_982_" d="M158.4,16.9c0,0.9-0.6,1.3-1.1,1.3c-0.6,0-0.9-0.5-0.9-1.1v-3.9h-0.9v4.3 c0,1,0.5,1.4,1.5,1.4c0.6,0,1.1-0.3,1.4-0.8h0v0.7h0.9c0-0.4-0.1-0.8-0.1-1.2v-4.4h-0.9V16.9z"></path> <rect id="XMLID_980_" x="161.2" y="10.8" width="0.9" height="8"></rect> <path id="XMLID_979_" d="M163.1,13.2v0.7h0.9v4c0,0.6,0.4,1,1.2,1c0.3,0,0.6-0.1,0.9-0.1v-0.7c-0.2,0-0.3,0-0.4,0 c-0.8,0-0.8-0.5-0.8-0.8v-3.4h1.2v-0.7h-1.2v-1.5l-0.9,0.4v1.1H163.1z"></path> <path id="XMLID_976_" d="M170.2,16.9c0,0.9-0.6,1.3-1.1,1.3c-0.6,0-0.9-0.5-0.9-1.1v-3.9h-0.9v4.3 c0,1,0.5,1.4,1.5,1.4c0.6,0,1.1-0.3,1.4-0.8h0v0.7h0.9c0-0.4-0.1-0.8-0.1-1.2v-4.4h-0.9V16.9z"></path> <path id="XMLID_971_" d="M174,13.2h-0.9v5.6h0.9v-3.3c0-0.8,0.3-1.5,1.2-1.5c0.2,0,0.3,0,0.5,0.1v-0.9 c-0.9,0-1.3,0.1-1.7,1h0V13.2z"></path> <path id="XMLID_966_" d="M179.8,18.8h1c-0.1-0.4-0.1-0.9-0.1-1.3v-2.7c0-0.9-0.4-1.7-1.8-1.7c-1.2,0-1.8,0.4-1.9,1.7 h1c-0.1-0.6,0.3-1,0.9-1c1,0,0.9,0.8,0.9,1.6c-1.2,0-2.9,0-2.9,1.7c0,1.1,0.3,1.8,1.5,1.8c0.7,0,1.1-0.3,1.4-0.9h0V18.8z M179.8,16c0.1,1.8-0.6,2.2-1.1,2.2c-0.6,0-0.9-0.5-0.9-1C177.8,15.9,178.9,16,179.8,16"></path> <rect id="XMLID_965_" x="182.7" y="10.8" width="0.9" height="8"></rect> <path id="XMLID_962_" d="M191.1,13.7L191.1,13.7c-0.3-0.4-0.7-0.7-1.2-0.7c-1.8,0-1.8,1.6-1.8,3 c0,2.5,0.9,2.8,1.8,2.8c0.6,0,1-0.3,1.3-0.8h0v0.7h0.9v-8h-0.9V13.7z M191.1,15.7c0,1.1,0,2.4-1,2.4c-1.1,0-1.1-1.2-1.1-2.1 c0-1.5,0.1-2.3,1.1-2.3C191.1,13.8,191.1,15,191.1,15.7"></path> <path id="XMLID_959_" d="M197.9,16.3v-0.5c0-1.9-0.4-2.7-2-2.7c-1.9,0-2.1,1.4-2.1,3c0,2.5,0.9,2.8,2.1,2.8 c1.2,0,1.9-0.6,1.9-1.8h-1c0,0.6-0.3,1.1-1,1.1c-0.7,0-1.1-0.3-1.1-1.9H197.9z M194.8,15.6c0-1.6,0.5-1.8,1-1.8 c0.7,0,1.1,0.2,1.1,1.8H194.8z"></path> <rect id="XMLID_958_" x="199.7" y="10.8" width="0.9" height="8"></rect> <path id="XMLID_957_" d="M209.8,13c0.1-1.6-0.5-2.4-2.1-2.4c-1.5,0-2.5,0.6-2.5,2.9v2.3c0,3.1,1.5,3.2,2.5,3.2 c0.5,0,2.3,0,2.2-2.5h-1c0,1.6-0.9,1.7-1.2,1.7c-0.8,0-1.4-0.2-1.4-2.2v-2.1c0-1.4,0.2-1.6,0.2-1.7c0-0.1,0.4-0.6,1.2-0.6 c0.2,0,0.7,0.1,0.9,0.3c0.2,0.3,0.2,0.7,0.2,1.2H209.8z"></path> <rect id="XMLID_956_" x="211.8" y="10.8" width="1" height="8"></rect> <path id="XMLID_955_" d="M219.5,13c0.1-1.6-0.5-2.4-2.1-2.4c-1.5,0-2.5,0.6-2.5,2.9v2.3c0,3.1,1.5,3.2,2.5,3.2 c0.5,0,2.3,0,2.2-2.5h-1c0,1.6-0.9,1.7-1.2,1.7c-0.8,0-1.4-0.2-1.4-2.2v-2.1c0-1.4,0.2-1.6,0.2-1.7c0-0.1,0.4-0.6,1.2-0.6 c0.2,0,0.7,0.1,0.9,0.3c0.2,0.3,0.2,0.7,0.2,1.2H219.5z"></path> </g> </g>
</svg>
