<svg xmlns="http://www.w3.org/2000/svg" viewBox="0 0 258.03 44.56"><defs><style>.cls-1{fill:#ed9066;}</style></defs><title>Recurso 2</title><g id="Capa_2" data-name="Capa 2"><g id="Capa_1-2" data-name="Capa 1"><g id="_Grupo_" data-name="&lt;Grupo&gt;"><g id="_Grupo_2" data-name="&lt;Grupo&gt;"><path id="_Trazado_" data-name="&lt;Trazado&gt;" class="cls-1" d="M134.67,33.86c.07,4.27,3.26,6.15,7.19,6.15,3.43,0,6.85-1.54,6.85-5.41a4.56,4.56,0,0,0-3.36-4.39c-.89-.27-4.71-1.25-5-1.33-1.23-.34-2.05-1-2.05-2.22,0-1.74,1.76-2.25,3.16-2.25,2.07,0,3.57.82,3.72,3h3c0-3.6-3-5.5-6.61-5.5-3.11,0-6.3,1.61-6.3,5.07,0,1.79.87,3.57,3.81,4.37,2.37.65,3.94,1,5.14,1.42a2,2,0,0,1,1.42,2.12c0,1.3-1,2.61-3.65,2.61-2.41,0-4.37-1-4.37-3.69Z"/><path id="_Trazado_compuesto_" data-name="&lt;Trazado compuesto&gt;" class="cls-1" d="M161.41,30.41c0-2.63-2.56-3.62-5-3.62-2.75,0-5.48.94-5.67,4.15h2.75c.12-1.35,1.21-2,2.75-2,1.11,0,2.58.27,2.58,1.69,0,1.62-1.76,1.4-3.74,1.76-2.32.27-4.8.77-4.8,3.88,0,2.44,2,3.64,4.27,3.64a6.41,6.41,0,0,0,4.32-1.52c.22,1.13,1,1.52,2.12,1.52a6.82,6.82,0,0,0,1.74-.31V37.72a3.68,3.68,0,0,1-.67,0c-.51,0-.65-.27-.65-.94Zm-2.75,5c0,1.74-1.88,2.36-3.09,2.36-1,0-2.53-.36-2.53-1.6,0-1.45,1.06-1.88,2.24-2.07s2.53-.19,3.38-.75Z"/><path id="_Trazado_2" data-name="&lt;Trazado&gt;" class="cls-1" d="M164.38,39.61h2.75V32.24a3,3,0,0,1,3-3.28c1.62,0,2.39.85,2.44,2.8v7.84h2.75V31c0-2.8-1.71-4.25-4.42-4.25A4.47,4.47,0,0,0,167,29l0,0V27.13h-2.61Z"/><path id="_Trazado_3" data-name="&lt;Trazado&gt;" class="cls-1" d="M177,29.18H179v7.36c0,2.08.58,3.19,3.45,3.19.6,0,1.18-.1,1.79-.14V37.46a4.58,4.58,0,0,1-1.16.1c-1.23,0-1.33-.58-1.33-1.72V29.18h2.49v-2H181.8V23.39H179v3.74H177Z"/><path id="_Trazado_4" data-name="&lt;Trazado&gt;" class="cls-1" d="M208,27.85c-.36-3.72-3.43-5.86-7.31-5.89-5.16,0-8.25,4.1-8.25,9s3.09,9,8.25,9A7.06,7.06,0,0,0,208,33h-2.94c-.24,2.51-1.72,4.52-4.39,4.52-3.69,0-5.24-3.26-5.24-6.57s1.55-6.57,5.24-6.57a4.12,4.12,0,0,1,4.3,3.43Z"/><path id="_Trazado_5" data-name="&lt;Trazado&gt;" class="cls-1" d="M221.35,27.13H218.6v7.24c0,1.93-.77,3.4-3.07,3.4-1.5,0-2.39-.8-2.39-3V27.13h-2.75V35c0,3.26,1.4,4.9,4.66,4.9a4.19,4.19,0,0,0,3.55-2.08h0v1.74h2.7Z"/><path id="_Trazado_compuesto_2" data-name="&lt;Trazado compuesto&gt;" class="cls-1" d="M235.78,27.13H233v1.71h0a3.92,3.92,0,0,0-3.69-2.05c-3.55,0-5.65,2.9-5.65,6.25,0,3.57,1.64,6.57,5.6,6.57a4.26,4.26,0,0,0,3.74-2.2h0v1.91c0,2-1,3.18-3.21,3.18-1.4,0-2.66-.26-3-1.83h-2.75c.24,2.92,3.07,3.89,5.58,3.89,3.94,0,6.13-1.86,6.13-5.6Zm-6.11,10.31c-2.29,0-3.28-2.08-3.28-4.13s.85-4.35,3.28-4.35,3.36,2,3.36,4.13-.92,4.35-3.36,4.35"/><path id="_Trazado_compuesto_3" data-name="&lt;Trazado compuesto&gt;" class="cls-1" d="M249,30.41c0-2.63-2.56-3.62-5-3.62-2.75,0-5.48.94-5.67,4.15h2.75c.12-1.35,1.21-2,2.75-2,1.11,0,2.58.27,2.58,1.69,0,1.62-1.76,1.4-3.74,1.76-2.32.27-4.8.77-4.8,3.88,0,2.44,2,3.64,4.27,3.64a6.41,6.41,0,0,0,4.32-1.52c.22,1.13,1,1.52,2.12,1.52a6.82,6.82,0,0,0,1.74-.31V37.72a3.7,3.7,0,0,1-.68,0c-.51,0-.65-.27-.65-.94Zm-2.75,5c0,1.74-1.88,2.36-3.09,2.36-1,0-2.54-.36-2.54-1.6,0-1.45,1.06-1.88,2.25-2.07s2.54-.19,3.38-.75Z"/><path id="_Trazado_6" data-name="&lt;Trazado&gt;" class="cls-1" d="M250.72,29.18h2.08v7.36c0,2.08.58,3.19,3.45,3.19.6,0,1.18-.1,1.79-.14V37.46a4.56,4.56,0,0,1-1.16.1c-1.23,0-1.33-.58-1.33-1.72V29.18H258v-2h-2.49V23.39h-2.75v3.74h-2.08Z"/><path id="_Trazado_compuesto_4" data-name="&lt;Trazado compuesto&gt;" class="cls-1" d="M136.3,7.35A2.67,2.67,0,0,1,139,4.71a2.7,2.7,0,0,1,2.7,2.64ZM141.64,10a2.26,2.26,0,0,1-2.43,1.83,2.76,2.76,0,0,1-2.91-3.08h7c.09-2.26-.92-5.36-4.24-5.36-2.55,0-4.4,2.06-4.4,4.87s1.5,4.92,4.49,4.92a3.77,3.77,0,0,0,4-3.19Z"/><path id="_Trazado_7" data-name="&lt;Trazado&gt;" class="cls-1" d="M144.29,10c.09,2.32,1.87,3.17,4,3.17,1.9,0,4-.72,4-2.95,0-1.81-1.52-2.32-3.06-2.66S146.12,7,146.12,5.9c0-.94,1.07-1.2,2-1.2s2.06.38,2.17,1.57h1.54C151.7,4,150.05,3.35,148,3.35c-1.63,0-3.49.78-3.49,2.66s1.54,2.3,3.06,2.64,3.06.54,3.06,1.74-1.3,1.39-2.26,1.39c-1.27,0-2.46-.44-2.51-1.81Z"/><path id="_Trazado_8" data-name="&lt;Trazado&gt;" class="cls-1" d="M161.89,6.57c-.22-2.23-1.92-3.22-4-3.22-3,0-4.42,2.21-4.42,5s1.52,4.78,4.38,4.78a3.89,3.89,0,0,0,4.13-3.64h-1.57a2.42,2.42,0,0,1-2.57,2.28c-2,0-2.73-1.7-2.73-3.42,0-1.9.69-3.66,2.91-3.66a2.18,2.18,0,0,1,2.32,1.87Z"/><path id="_Trazado_compuesto_5" data-name="&lt;Trazado compuesto&gt;" class="cls-1" d="M164.78,8.26c0-2.28,1.3-3.55,2.91-3.55s2.91,1.27,2.91,3.55-1.3,3.53-2.91,3.53-2.91-1.27-2.91-3.53m-1.63,0c0,2.73,1.58,4.89,4.54,4.89s4.54-2.16,4.54-4.89-1.58-4.91-4.54-4.91-4.54,2.15-4.54,4.91"/><rect id="_Trazado_9" data-name="&lt;Trazado&gt;" class="cls-1" x="174.14" width="1.54" height="12.93"/><path id="_Trazado_compuesto_6" data-name="&lt;Trazado compuesto&gt;" class="cls-1" d="M186.36,11.69a1.34,1.34,0,0,1-.47.09c-.49,0-.49-.33-.49-1.05V5.92c0-2.19-1.83-2.57-3.51-2.57-2.08,0-3.87.82-4,3.13h1.54c.07-1.38,1-1.77,2.33-1.77,1,0,2.08.22,2.08,1.56,0,1.16-1.45,1-3.15,1.38s-3.17.76-3.17,2.88c0,1.86,1.39,2.62,3.09,2.62A4.15,4.15,0,0,0,184,11.69c0,1,.51,1.45,1.3,1.45a2.07,2.07,0,0,0,1.11-.25Zm-2.5-2c0,.85-.83,2.12-2.86,2.12-.94,0-1.81-.36-1.81-1.38s.87-1.5,1.88-1.68a8,8,0,0,0,2.79-.64Z"/><path id="_Trazado_compuesto_7" data-name="&lt;Trazado compuesto&gt;" class="cls-1" d="M96.32,39.93h5.42l.94-4.57h-.12a13.37,13.37,0,0,1-6.23,4.57M65,39.93h6.24A3.75,3.75,0,0,1,70,36.39l-.12-.12A10.35,10.35,0,0,1,65,39.93m-10-8c0,2.89,2.72,4.34,5.61,4.34,4,0,6.94-1.33,8.75-4.1,1.69-2.35,2-5.13,2.71-8H72c-2.23,1.33-6.27,1.63-10,2.11s-6.94,1.69-6.94,5.67M5.25,13.4H0V39.93H4.15A4.4,4.4,0,0,1,.84,35.36a13,13,0,0,1,.3-2.59Zm1-4.53L7.8,1.31H0V13.4L1,8.87ZM16.74,39.93,24.91,1.31h-12L11.34,8.87h6.22l-1,4.53H10.38L6.52,31.74c-.06.73-.18,1.33-.18,2.05,0,1.63,1.51,2.11,3.08,2.11a9.84,9.84,0,0,0,3-.54l-.88,4.57ZM28.9,16.3c-1.81,1.57-2.78,4-3.44,6.52L21.87,39.93H37.38l4-18.08A34.75,34.75,0,0,0,42.06,17c0-3-2.41-4.35-5.43-4.35A11.23,11.23,0,0,0,28.9,16.3m96.63,23.64V1.31H30L27.27,13.46l.12.12A13.83,13.83,0,0,1,38.5,8.15c5.85,0,8.69,2.53,8.69,8a32.87,32.87,0,0,1-.91,6.1L42.51,39.93h12.3C51.94,38.76,50,36.29,50,32c0-9.05,8.87-9.66,15.75-10.26,5.43-.48,7.85-.79,7.85-4.95,0-3.38-3.56-4.1-6.28-4.1-3.92,0-7.79,1.57-8.39,5.61H53.75c1-6.94,6.88-10.14,13.52-10.14,6,0,11.4,1.63,11.4,8a30.06,30.06,0,0,1-1,5.67l-2,8.51a25.44,25.44,0,0,0-.85,4.47c0,1.45.66,1.93,1.51,1.93A5.31,5.31,0,0,0,78,36.27l-.76,3.67H86.7c-2.62-1.15-3.93-3.47-3.93-7.16a32.87,32.87,0,0,1,.91-6.1l3.8-17.8H92.6l-4,18.23a34.62,34.62,0,0,0-.72,4.83c0,3,2.41,4.34,5.43,4.34,5.67,0,10.08-4.95,11.16-10.14l3.62-17.26h5.13l-6.55,31.06Z"/></g></g></g></g></svg>