<svg xmlns="http://www.w3.org/2000/svg" viewBox="0 0 243.5 38.33"><defs><style>.cls-1{fill:#f19b41;}</style></defs><title>Recurso 1</title><g id="Capa_2" data-name="Capa 2"><g id="Capa_1-2" data-name="Capa 1"><g id="_Grupo_" data-name="&lt;Grupo&gt;"><g id="_Grupo_2" data-name="&lt;Grupo&gt;"><path id="_Trazado_compuesto_" data-name="&lt;Trazado compuesto&gt;" class="cls-1" d="M136.66,23.33h4.89c1.63,0,2.52.62,2.52,2.35a2.29,2.29,0,0,1-2.52,2.37h-4.89Zm-3,14.66h7.86c4.43,0,6.3-2.08,6.3-4.77,0-2.32-1.13-4-3.21-4.41v0a3.76,3.76,0,0,0,2.44-3.64c0-2.85-2-4.24-5.08-4.24h-8.31Zm3-7.79H142c1.82,0,2.87,1,2.87,2.64A2.54,2.54,0,0,1,142,35.55h-5.29Z"/><path id="_Trazado_compuesto_2" data-name="&lt;Trazado compuesto&gt;" class="cls-1" d="M160.51,28.86c0-2.61-2.54-3.59-5-3.59-2.73,0-5.44.93-5.63,4.12h2.73c.12-1.34,1.2-2,2.73-2,1.1,0,2.56.26,2.56,1.68,0,1.6-1.75,1.39-3.71,1.75-2.3.27-4.77.76-4.77,3.86,0,2.42,2,3.62,4.24,3.62A6.36,6.36,0,0,0,158,36.82c.22,1.13,1,1.51,2.11,1.51a6.84,6.84,0,0,0,1.73-.31V36.12a3.86,3.86,0,0,1-.67,0c-.5,0-.65-.26-.65-.93Zm-2.73,5c0,1.72-1.87,2.35-3.07,2.35-1,0-2.52-.36-2.52-1.58,0-1.44,1.05-1.87,2.23-2.06s2.51-.19,3.35-.74Z"/><path id="_Trazado_" data-name="&lt;Trazado&gt;" class="cls-1" d="M163.46,38h2.73V32.1c0-2.73,1.49-4.24,3.35-4.24a9.56,9.56,0,0,1,1.17.12V25.35a6.25,6.25,0,0,0-1-.07A4,4,0,0,0,166.07,28h0V25.61h-2.56Z"/><path id="_Trazado_2" data-name="&lt;Trazado&gt;" class="cls-1" d="M182.55,29.75c-.26-3-2.71-4.48-5.58-4.48-4.07,0-6.11,2.92-6.11,6.66s2.13,6.4,6,6.4c3.19,0,5.18-1.78,5.68-5h-2.73a2.94,2.94,0,0,1-2.95,2.83c-2.37,0-3.28-2.18-3.28-4.24,0-3.76,2-4.5,3.4-4.5a2.62,2.62,0,0,1,2.83,2.32Z"/><path id="_Trazado_compuesto_3" data-name="&lt;Trazado compuesto&gt;" class="cls-1" d="M186.9,30.71a3.19,3.19,0,1,1,6.37,0Zm9.1,1.8c.46-3.71-1.94-7.23-5.85-7.23-3.69,0-6,3-6,6.54,0,3.81,2.18,6.52,6.06,6.52a5.43,5.43,0,0,0,5.61-4.22h-2.59a2.87,2.87,0,0,1-3,2.06c-2.27,0-3.33-1.72-3.33-3.67Z"/><rect id="_Trazado_3" data-name="&lt;Trazado&gt;" class="cls-1" x="198.16" y="20.89" width="2.73" height="17.1"/><path id="_Trazado_compuesto_4" data-name="&lt;Trazado compuesto&gt;" class="cls-1" d="M209.54,38.33c4,0,6.25-2.73,6.25-6.54s-2.28-6.51-6.25-6.51-6.25,2.73-6.25,6.51,2.27,6.54,6.25,6.54m0-2.16c-2.44,0-3.52-2.23-3.52-4.38s1.08-4.36,3.52-4.36,3.52,2.23,3.52,4.36-1.08,4.38-3.52,4.38"/><path id="_Trazado_4" data-name="&lt;Trazado&gt;" class="cls-1" d="M218.06,38h2.73V30.69a3,3,0,0,1,3-3.26c1.61,0,2.37.84,2.42,2.78V38h2.73v-8.5c0-2.78-1.7-4.21-4.38-4.21a4.44,4.44,0,0,0-3.86,2.2l0,0V25.61h-2.59Z"/><path id="_Trazado_compuesto_5" data-name="&lt;Trazado compuesto&gt;" class="cls-1" d="M242.18,28.86c0-2.61-2.54-3.59-5-3.59-2.73,0-5.44.93-5.63,4.12h2.73c.12-1.34,1.2-2,2.73-2,1.1,0,2.56.26,2.56,1.68,0,1.6-1.75,1.39-3.71,1.75-2.3.27-4.77.76-4.77,3.86,0,2.42,2,3.62,4.24,3.62a6.37,6.37,0,0,0,4.29-1.51c.21,1.13,1,1.51,2.11,1.51A6.81,6.81,0,0,0,243.5,38V36.12a3.85,3.85,0,0,1-.67,0c-.5,0-.65-.26-.65-.93Zm-2.73,5c0,1.72-1.87,2.35-3.07,2.35-1,0-2.51-.36-2.51-1.58,0-1.44,1.05-1.87,2.23-2.06s2.52-.19,3.35-.74Z"/><path id="_Trazado_compuesto_6" data-name="&lt;Trazado compuesto&gt;" class="cls-1" d="M135.28,7.3a2.67,2.67,0,0,1,5.34,0Zm5.3,2.58a2.24,2.24,0,0,1-2.41,1.81,2.73,2.73,0,0,1-2.89-3.05h7c.09-2.24-.92-5.32-4.2-5.32-2.53,0-4.37,2-4.37,4.83S135.15,13,138.12,13a3.75,3.75,0,0,0,4-3.16Z"/><path id="_Trazado_5" data-name="&lt;Trazado&gt;" class="cls-1" d="M143.22,9.9c.09,2.3,1.85,3.15,3.94,3.15,1.89,0,4-.72,4-2.93,0-1.8-1.51-2.3-3-2.64s-3-.52-3-1.62c0-.93,1.06-1.19,2-1.19s2,.38,2.16,1.56h1.53c-.13-2.26-1.76-2.91-3.81-2.91-1.62,0-3.47.77-3.47,2.64s1.53,2.28,3,2.62,3,.54,3,1.73-1.3,1.38-2.25,1.38c-1.26,0-2.44-.43-2.5-1.8Z"/><path id="_Trazado_6" data-name="&lt;Trazado&gt;" class="cls-1" d="M160.68,6.52c-.22-2.21-1.9-3.2-4-3.2-2.95,0-4.38,2.19-4.38,5S153.8,13,156.64,13a3.86,3.86,0,0,0,4.1-3.61h-1.56a2.4,2.4,0,0,1-2.55,2.26c-1.94,0-2.71-1.69-2.71-3.39,0-1.89.68-3.63,2.89-3.63a2.16,2.16,0,0,1,2.3,1.85Z"/><path id="_Trazado_compuesto_7" data-name="&lt;Trazado compuesto&gt;" class="cls-1" d="M163.56,8.19c0-2.27,1.29-3.52,2.89-3.52s2.89,1.26,2.89,3.52-1.29,3.5-2.89,3.5-2.89-1.26-2.89-3.5m-1.62,0c0,2.71,1.56,4.85,4.51,4.85S171,10.91,171,8.19s-1.56-4.87-4.51-4.87-4.51,2.14-4.51,4.87"/><rect id="_Trazado_7" data-name="&lt;Trazado&gt;" class="cls-1" x="172.84" width="1.53" height="12.83"/><path id="_Trazado_compuesto_8" data-name="&lt;Trazado compuesto&gt;" class="cls-1" d="M185,11.61a1.32,1.32,0,0,1-.47.09c-.49,0-.49-.32-.49-1V5.87c0-2.17-1.81-2.55-3.48-2.55-2.07,0-3.85.81-3.94,3.11h1.53c.07-1.36,1-1.76,2.32-1.76,1,0,2.07.22,2.07,1.55,0,1.15-1.44,1-3.13,1.36s-3.14.76-3.14,2.86c0,1.85,1.38,2.61,3.07,2.61a4.13,4.13,0,0,0,3.27-1.44c0,1,.5,1.44,1.29,1.44a2.1,2.1,0,0,0,1.1-.25Zm-2.48-2c0,.85-.83,2.1-2.84,2.1-.93,0-1.8-.36-1.8-1.37s.86-1.49,1.87-1.67A7.81,7.81,0,0,0,182.49,8Z"/><path id="_Trazado_compuesto_9" data-name="&lt;Trazado compuesto&gt;" class="cls-1" d="M95.61,38.33H101l.93-4.54h-.12a13.27,13.27,0,0,1-6.19,4.54m-31.06,0h6.3a3.64,3.64,0,0,1-1.32-3.52l-.12-.12a10.26,10.26,0,0,1-4.86,3.64m-9.87-8c0,2.88,2.69,4.31,5.57,4.31,4,0,6.89-1.32,8.68-4.07,1.68-2.33,2-5.09,2.7-8H71.5c-2.22,1.31-6.23,1.62-9.94,2.1s-6.89,1.68-6.89,5.63M5.21,12H0V38.33H4.13a4.37,4.37,0,0,1-3.3-4.54,13.16,13.16,0,0,1,.3-2.58Zm1-4.49L7.74,0H0V12L1,7.5ZM16.62,38.33,24.72,0H12.83L11.26,7.5h6.17l-1,4.49H10.3L6.47,30.2c-.06.72-.18,1.32-.18,2,0,1.61,1.5,2.09,3.06,2.09a9.76,9.76,0,0,0,2.93-.54l-.87,4.54ZM28.69,14.87c-1.8,1.56-2.76,4-3.42,6.47l-3.56,17H37.1l3.92-18a34.27,34.27,0,0,0,.72-4.79c0-2.93-2.4-4.31-5.39-4.31a11.14,11.14,0,0,0-7.66,3.59M124.6,38.33V0H29.76l-2.7,12.05.12.12a13.73,13.73,0,0,1,11-5.39c5.81,0,8.62,2.52,8.62,8a32.5,32.5,0,0,1-.9,6L42.19,38.33H54.4c-2.85-1.17-4.82-3.62-4.82-7.89,0-9,8.8-9.58,15.63-10.18,5.39-.48,7.79-.78,7.79-4.91,0-3.35-3.53-4.07-6.23-4.07-3.89,0-7.73,1.56-8.33,5.57H53.36c1-6.89,6.83-10.07,13.41-10.07,6,0,11.32,1.62,11.32,7.91a29.82,29.82,0,0,1-1,5.63l-2,8.44a25.21,25.21,0,0,0-.84,4.43c0,1.44.66,1.91,1.5,1.91a5.3,5.3,0,0,0,1.62-.42l-.75,3.64h9.37c-2.6-1.14-3.9-3.45-3.9-7.11a32.61,32.61,0,0,1,.9-6L86.82,7.5h5.09L88,25.59a34.26,34.26,0,0,0-.72,4.79c0,2.93,2.39,4.31,5.39,4.31,5.63,0,10-4.91,11.08-10.06L107.3,7.5h5.09l-6.5,30.83Z"/></g></g></g></g></svg>