<svg xmlns="http://www.w3.org/2000/svg" viewBox="0 0 211.85 38.48"><defs><style>.cls-1{fill:#e9655f;}</style></defs><title>Recurso 3</title><g id="Capa_2" data-name="Capa 2"><g id="Capa_1-2" data-name="Capa 1"><g id="_Grupo_" data-name="&lt;Grupo&gt;"><g id="_Grupo_2" data-name="&lt;Grupo&gt;"><path id="_Trazado_" data-name="&lt;Trazado&gt;" class="cls-1" d="M133.91,38.15h2.74V30.78c0-2.06,1.29-3.22,2.71-3.22,1.66,0,2.19.91,2.19,2.62v8h2.73V30.87c0-2.09.79-3.31,2.64-3.31,2.14,0,2.26,1.37,2.26,3.34v7.25h2.74V29.58c0-3-1.54-4.18-4.15-4.18a4.48,4.48,0,0,0-3.89,2.06,3.52,3.52,0,0,0-3.48-2.06,4.15,4.15,0,0,0-3.82,2.06h-.07V25.74h-2.59Z"/><path id="_Trazado_compuesto_" data-name="&lt;Trazado compuesto&gt;" class="cls-1" d="M165.68,25.74h-2.74v7.2c0,1.92-.77,3.38-3,3.38-1.49,0-2.38-.79-2.38-3V25.74h-2.74v7.87c0,3.24,1.39,4.87,4.63,4.87a4.17,4.17,0,0,0,3.53-2.06h0v1.73h2.69ZM158.43,24h2l3.41-3.43h-3.24Z"/><path id="_Trazado_2" data-name="&lt;Trazado&gt;" class="cls-1" d="M167.89,34.16c0,2.93,2.38,4.32,5.5,4.32,2.57,0,5.54-1.08,5.54-4,0-2.45-2-3.17-4-3.63s-4-.65-4-2c0-1.08,1.47-1.27,2.26-1.27,1.2,0,2.28.36,2.52,1.66h2.86c-.34-2.76-2.64-3.82-5.19-3.82-2.26,0-5.18.84-5.18,3.55,0,2.52,2,3.24,4,3.67s4,.62,4.06,2.06-1.73,1.63-2.76,1.63c-1.46,0-2.66-.58-2.81-2.16Z"/><path id="_Trazado_compuesto_2" data-name="&lt;Trazado compuesto&gt;" class="cls-1" d="M181.08,38.15h2.73V25.74h-2.73Zm0-14.54h2.73V21h-2.73Z"/><path id="_Trazado_3" data-name="&lt;Trazado&gt;" class="cls-1" d="M197.9,29.89c-.26-3-2.71-4.49-5.59-4.49-4.08,0-6.12,2.93-6.12,6.67s2.14,6.41,6,6.41c3.19,0,5.18-1.77,5.69-5h-2.74a3,3,0,0,1-3,2.83c-2.38,0-3.29-2.18-3.29-4.25,0-3.77,2-4.51,3.41-4.51a2.62,2.62,0,0,1,2.83,2.33Z"/><path id="_Trazado_compuesto_3" data-name="&lt;Trazado compuesto&gt;" class="cls-1" d="M210.53,29c0-2.61-2.54-3.6-5-3.6-2.74,0-5.45.94-5.64,4.13h2.74c.12-1.34,1.2-2,2.74-2,1.1,0,2.57.27,2.57,1.68,0,1.61-1.75,1.39-3.72,1.75-2.3.27-4.78.77-4.78,3.86,0,2.43,2,3.63,4.25,3.63A6.35,6.35,0,0,0,208,37c.22,1.13,1,1.51,2.11,1.51a6.94,6.94,0,0,0,1.73-.31v-1.9a3.84,3.84,0,0,1-.67,0c-.5,0-.65-.27-.65-.93Zm-2.74,5c0,1.73-1.87,2.35-3.07,2.35-1,0-2.52-.36-2.52-1.58,0-1.44,1.06-1.87,2.23-2.06s2.52-.19,3.36-.74Z"/><path id="_Trazado_compuesto_4" data-name="&lt;Trazado compuesto&gt;" class="cls-1" d="M135.53,7.31a2.65,2.65,0,0,1,2.66-2.63,2.68,2.68,0,0,1,2.68,2.63Zm5.31,2.59a2.24,2.24,0,0,1-2.41,1.82,2.74,2.74,0,0,1-2.9-3.06h7c.09-2.25-.92-5.33-4.21-5.33-2.54,0-4.37,2.05-4.37,4.84s1.49,4.9,4.46,4.9a3.75,3.75,0,0,0,4-3.17Z"/><path id="_Trazado_4" data-name="&lt;Trazado&gt;" class="cls-1" d="M143.48,9.92c.09,2.3,1.86,3.15,3.94,3.15,1.89,0,4-.72,4-2.93,0-1.8-1.51-2.31-3-2.65s-3-.52-3-1.62c0-.93,1.06-1.19,2-1.19s2.05.38,2.16,1.57H151c-.13-2.27-1.76-2.91-3.82-2.91-1.62,0-3.47.77-3.47,2.64s1.53,2.29,3,2.63,3,.54,3,1.73-1.3,1.38-2.25,1.38c-1.26,0-2.45-.43-2.5-1.8Z"/><path id="_Trazado_5" data-name="&lt;Trazado&gt;" class="cls-1" d="M161,6.53c-.22-2.21-1.91-3.2-4-3.2-3,0-4.39,2.2-4.39,5s1.51,4.75,4.36,4.75A3.87,3.87,0,0,0,161,9.45h-1.57a2.41,2.41,0,0,1-2.56,2.27c-1.94,0-2.72-1.69-2.72-3.4,0-1.89.68-3.64,2.9-3.64a2.17,2.17,0,0,1,2.3,1.85Z"/><path id="_Trazado_compuesto_5" data-name="&lt;Trazado compuesto&gt;" class="cls-1" d="M163.85,8.21c0-2.27,1.29-3.53,2.9-3.53s2.9,1.26,2.9,3.53-1.29,3.51-2.9,3.51-2.9-1.26-2.9-3.51m-1.62,0c0,2.72,1.57,4.86,4.52,4.86s4.52-2.14,4.52-4.86-1.56-4.88-4.52-4.88-4.52,2.14-4.52,4.88"/><rect id="_Trazado_6" data-name="&lt;Trazado&gt;" class="cls-1" x="173.16" width="1.53" height="12.85"/><path id="_Trazado_compuesto_6" data-name="&lt;Trazado compuesto&gt;" class="cls-1" d="M185.31,11.63a1.31,1.31,0,0,1-.47.09c-.49,0-.49-.32-.49-1V5.89c0-2.18-1.82-2.56-3.49-2.56-2.07,0-3.85.81-3.94,3.11h1.53c.07-1.37,1-1.77,2.32-1.77,1,0,2.07.22,2.07,1.55,0,1.15-1.44,1-3.13,1.37s-3.15.76-3.15,2.86c0,1.85,1.39,2.61,3.08,2.61a4.13,4.13,0,0,0,3.28-1.44c0,1,.5,1.44,1.29,1.44a2.08,2.08,0,0,0,1.1-.25Zm-2.48-2c0,.85-.83,2.1-2.84,2.1-.94,0-1.8-.36-1.8-1.37s.86-1.49,1.87-1.67A7.86,7.86,0,0,0,182.82,8Z"/><path id="_Trazado_7" data-name="&lt;Trazado&gt;" class="cls-1" d="M118.29,36.81l-.09-.09a8.31,8.31,0,0,1-1.79,1.76h2.07a3.48,3.48,0,0,1-.19-1.67"/><path id="_Trazado_8" data-name="&lt;Trazado&gt;" class="cls-1" d="M117.83,33.62c1.28-1.78,1.5-3.87,2.05-6.06h-.09c-1.68,1-4.74,1.23-7.56,1.6S107,30.44,107,33.44c0,2.19,2,3.28,4.23,3.28,3,0,5.24-1,6.6-3.1"/><path id="_Trazado_9" data-name="&lt;Trazado&gt;" class="cls-1" d="M72.1,18.92c-4.55,0-7,3-8.15,6.65H77.61c.27-3.32-1.23-6.65-5.51-6.65"/><path id="_Trazado_compuesto_7" data-name="&lt;Trazado compuesto&gt;" class="cls-1" d="M0,.09V16H3.46l2,19.58h.09L15.75,16h4.19L7.48,38.48H28.25L32.94,16h3.64L35.44,21.1h.09A9.11,9.11,0,0,1,44,16a6.87,6.87,0,0,1,1.36,0l-.75,3.48a9.66,9.66,0,0,0-1.14,0,7.93,7.93,0,0,0-2.32.23,9,9,0,0,0-5.05,4,15.69,15.69,0,0,0-2,5.51l-2,9.32H47.59A3.45,3.45,0,0,1,46.74,36a10.05,10.05,0,0,1,.23-2l3.1-14.61h-4L46.83,16h4l1.46-7h3.87l-1.46,7h4.69l-.73,3.41H53.93L51,33.3c0,.55-.14,1-.14,1.55,0,1.23,1.14,1.6,2.32,1.6A7.48,7.48,0,0,0,55.43,36L55,38.48h8.22a9.22,9.22,0,0,1-3.79-7.82c0-9,5.64-15.16,12.11-15.16,6.92,0,10,3.78,10,10.43A15,15,0,0,1,81.11,29H63.4a15.26,15.26,0,0,0-.14,2c0,3.64,3,5.69,6.1,5.69a6.69,6.69,0,0,0,6.78-4.51H80a9.76,9.76,0,0,1-4.48,6.27h29.59a6.26,6.26,0,0,1-2-5c0-6.83,6.69-7.28,11.88-7.74,4.1-.36,5.92-.59,5.92-3.73,0-2.55-2.69-3.1-4.73-3.1-3,0-5.87,1.18-6.33,4.24H106c.77-5.24,5.19-7.65,10.2-7.65,4.55,0,8.61,1.23,8.61,6a22.8,22.8,0,0,1-.73,4.28l-1.5,6.42a19.14,19.14,0,0,0-.64,3.37c0,1.09.5,1.46,1.14,1.46a4.15,4.15,0,0,0,1.23-.32l-.36,1.76h.89V.09Zm23.22,38.4H19.35L24,16h3.87Zm5.6-26.67H24.9l1-4.74h3.91Zm44.24,1L68.45,6.3h4.6l3.05,6.51ZM83.38,38.48,90,7.08h3.87l-6.6,31.41Zm14,0H93.48L98.17,16H102ZM103,11.81H99l1-4.74H104Z"/><polygon id="_Trazado_10" data-name="&lt;Trazado&gt;" class="cls-1" points="0 38.48 2.57 38.48 0 20.52 0 38.48"/></g></g></g></g></svg>