<svg xmlns="http://www.w3.org/2000/svg" viewBox="0 0 219.53 38.52"><defs><style>.cls-1{fill:#26b1dc;}</style></defs><title>Recurso 8</title><g id="Capa_2" data-name="Capa 2"><g id="Capa_1-2" data-name="Capa 1"><path id="_Trazado_compuesto_" data-name="&lt;Trazado compuesto&gt;" class="cls-1" d="M134.31,23.5H137V20.9h-2.74Zm0,14.59H137V25.64h-2.74Z"/><g id="_Grupo_" data-name="&lt;Grupo&gt;"><path id="_Trazado_compuesto_2" data-name="&lt;Trazado compuesto&gt;" class="cls-1" d="M151.75,20.9H149v6.36h0a4.8,4.8,0,0,0-4.14-2c-2.72,0-5.39,2-5.39,6.48,0,3.73,1.9,6.64,5.83,6.64a4.13,4.13,0,0,0,3.85-2h0v1.69h2.6ZM142.17,32c0-2.24.91-4.53,3.49-4.53,2.12,0,3.44,1.64,3.44,4.38,0,2.17-1,4.41-3.49,4.41s-3.44-2.12-3.44-4.26"/><path id="_Trazado_compuesto_3" data-name="&lt;Trazado compuesto&gt;" class="cls-1" d="M154.81,23.5h2.74V20.9h-2.74Zm0,14.59h2.74V25.64h-2.74Z"/><path id="_Trazado_compuesto_4" data-name="&lt;Trazado compuesto&gt;" class="cls-1" d="M166.24,38.42c4,0,6.28-2.74,6.28-6.57s-2.29-6.55-6.28-6.55S160,28,160,31.85s2.29,6.57,6.28,6.57m0-2.16c-2.45,0-3.54-2.24-3.54-4.41s1.08-4.38,3.54-4.38,3.54,2.24,3.54,4.38-1.08,4.41-3.54,4.41"/><path id="_Trazado_" data-name="&lt;Trazado&gt;" class="cls-1" d="M174.81,38.09h2.74V30.7c0-2.07,1.3-3.22,2.72-3.22,1.66,0,2.19.91,2.19,2.62v8h2.75V30.79c0-2.1.79-3.32,2.65-3.32,2.14,0,2.26,1.37,2.26,3.34v7.27h2.75V29.49c0-3-1.54-4.19-4.17-4.19a4.49,4.49,0,0,0-3.9,2.07,3.53,3.53,0,0,0-3.49-2.07,4.16,4.16,0,0,0-3.83,2.07h-.07V25.64h-2.6Z"/><path id="_Trazado_compuesto_5" data-name="&lt;Trazado compuesto&gt;" class="cls-1" d="M197.89,30.77a3.2,3.2,0,1,1,6.4,0ZM207,32.57c.46-3.73-1.95-7.27-5.87-7.27-3.71,0-6,3-6,6.57,0,3.83,2.19,6.55,6.09,6.55a5.45,5.45,0,0,0,5.64-4.23h-2.6a2.89,2.89,0,0,1-3,2.07c-2.29,0-3.35-1.73-3.35-3.68Z"/><path id="_Trazado_2" data-name="&lt;Trazado&gt;" class="cls-1" d="M208.45,34.09c0,2.94,2.38,4.33,5.51,4.33,2.58,0,5.56-1.08,5.56-4,0-2.45-2-3.18-4-3.63s-4-.65-4-2c0-1.08,1.47-1.27,2.26-1.27,1.2,0,2.29.36,2.53,1.66h2.86c-.34-2.77-2.65-3.83-5.2-3.83-2.26,0-5.2.84-5.2,3.56,0,2.53,2,3.25,4,3.69s4,.62,4.07,2.07S215,36.26,214,36.26c-1.47,0-2.67-.58-2.82-2.17Z"/><path id="_Trazado_compuesto_6" data-name="&lt;Trazado compuesto&gt;" class="cls-1" d="M135.93,7.33a2.68,2.68,0,0,1,5.36,0Zm5.33,2.6a2.25,2.25,0,0,1-2.42,1.82,2.75,2.75,0,0,1-2.91-3.07h7c.09-2.26-.92-5.35-4.22-5.35-2.55,0-4.39,2.06-4.39,4.86s1.5,4.91,4.48,4.91a3.76,3.76,0,0,0,4-3.18Z"/><path id="_Trazado_3" data-name="&lt;Trazado&gt;" class="cls-1" d="M143.91,9.95c.09,2.31,1.86,3.16,4,3.16,1.89,0,4-.72,4-2.94,0-1.81-1.52-2.31-3.05-2.66s-3.05-.52-3.05-1.62c0-.94,1.07-1.19,2-1.19s2.06.38,2.17,1.57h1.53c-.13-2.28-1.77-2.93-3.83-2.93-1.62,0-3.48.78-3.48,2.65s1.54,2.29,3.05,2.64,3.05.54,3.05,1.73-1.3,1.39-2.26,1.39c-1.26,0-2.45-.43-2.51-1.81Z"/><path id="_Trazado_4" data-name="&lt;Trazado&gt;" class="cls-1" d="M161.46,6.55c-.22-2.22-1.91-3.21-4-3.21-3,0-4.4,2.2-4.4,5s1.52,4.77,4.37,4.77a3.88,3.88,0,0,0,4.12-3.63h-1.57a2.41,2.41,0,0,1-2.56,2.28c-1.95,0-2.73-1.7-2.73-3.41,0-1.89.69-3.65,2.91-3.65a2.17,2.17,0,0,1,2.31,1.86Z"/><path id="_Trazado_compuesto_7" data-name="&lt;Trazado compuesto&gt;" class="cls-1" d="M164.34,8.23c0-2.27,1.3-3.54,2.91-3.54s2.91,1.26,2.91,3.54-1.3,3.52-2.91,3.52-2.91-1.27-2.91-3.52m-1.62,0c0,2.73,1.57,4.87,4.53,4.87s4.53-2.15,4.53-4.87-1.57-4.89-4.53-4.89-4.53,2.15-4.53,4.89"/><rect id="_Trazado_5" data-name="&lt;Trazado&gt;" class="cls-1" x="173.67" width="1.54" height="12.89"/><path id="_Trazado_compuesto_8" data-name="&lt;Trazado compuesto&gt;" class="cls-1" d="M185.86,11.66a1.34,1.34,0,0,1-.47.09c-.49,0-.49-.33-.49-1V5.9c0-2.19-1.82-2.57-3.5-2.57-2.08,0-3.86.81-4,3.13H179c.07-1.38,1-1.77,2.33-1.77,1,0,2.08.22,2.08,1.55,0,1.16-1.44,1-3.14,1.37s-3.16.76-3.16,2.87c0,1.86,1.39,2.62,3.09,2.62a4.14,4.14,0,0,0,3.29-1.44c0,1,.5,1.44,1.3,1.44a2.07,2.07,0,0,0,1.1-.25Zm-2.49-2c0,.85-.83,2.11-2.85,2.11-.94,0-1.81-.36-1.81-1.37s.87-1.5,1.88-1.68a7.94,7.94,0,0,0,2.78-.63Z"/><path id="_Trazado_6" data-name="&lt;Trazado&gt;" class="cls-1" d="M86.44,0c4.25,2.34,7,6.56,7,12.68H87.68C87.68,5.94,83.28,2.63,77,2.63c-12,0-17.87,11-17.87,21.37,0,8.3,4.09,14,12.7,14,7,0,11.44-4,13.3-10.71h5.72a20.41,20.41,0,0,1-6.17,11.21h40.5V0Z"/><path id="_Trazado_7" data-name="&lt;Trazado&gt;" class="cls-1" d="M8,0H0V6.62A22.13,22.13,0,0,1,8,0"/><path id="_Trazado_8" data-name="&lt;Trazado&gt;" class="cls-1" d="M27.42,0c4.25,2.34,7,6.56,7,12.68H28.66C28.66,5.94,24.26,2.63,18,2.63,6,2.63.13,13.64.13,24c0,8.3,4.09,14,12.7,14,7,0,11.43-4,13.3-10.71h5.72a20.41,20.41,0,0,1-6.17,11.21h11L44.78,0Z"/><path id="_Trazado_9" data-name="&lt;Trazado&gt;" class="cls-1" d="M53.43,24c0-10.39,5-19.87,13.62-24H50.49L42.4,38.52H59c-3.59-3.23-5.52-8.17-5.52-14.52"/></g></g></g></svg>