<svg xmlns="http://www.w3.org/2000/svg" viewBox="0 0 256.74 38.61"><defs><style>.cls-1{fill:#036971;}</style></defs><title>Recurso 4</title><g id="Capa_2" data-name="Capa 2"><g id="Capa_1-2" data-name="Capa 1"><g id="_Grupo_" data-name="&lt;Grupo&gt;"><path id="_Trazado_compuesto_" data-name="&lt;Trazado compuesto&gt;" class="cls-1" d="M140.73,13.72a2.23,2.23,0,0,1-2.4,1.8,2.73,2.73,0,0,1-2.88-3h6.93c.09-2.24-.91-5.3-4.19-5.3-2.53,0-4.35,2-4.35,4.82s1.49,4.87,4.44,4.87a3.73,3.73,0,0,0,4-3.15Zm-5.28-2.58a2.63,2.63,0,0,1,2.65-2.62,2.66,2.66,0,0,1,2.67,2.62Z"/><path id="_Trazado_" data-name="&lt;Trazado&gt;" class="cls-1" d="M143.36,13.73c.09,2.29,1.84,3.13,3.92,3.13,1.88,0,3.94-.72,3.94-2.92,0-1.79-1.5-2.29-3-2.63s-3-.52-3-1.61c0-.93,1.06-1.18,2-1.18s2,.38,2.15,1.56h1.52c-.13-2.26-1.76-2.9-3.8-2.9-1.61,0-3.46.77-3.46,2.63s1.52,2.27,3,2.62,3,.54,3,1.72-1.29,1.38-2.24,1.38c-1.25,0-2.43-.43-2.49-1.79Z"/><path id="_Trazado_2" data-name="&lt;Trazado&gt;" class="cls-1" d="M160.77,10.37c-.21-2.2-1.9-3.19-4-3.19-2.94,0-4.37,2.18-4.37,5s1.5,4.73,4.33,4.73a3.85,3.85,0,0,0,4.09-3.6h-1.56a2.4,2.4,0,0,1-2.55,2.26c-1.93,0-2.7-1.68-2.7-3.38,0-1.88.68-3.62,2.88-3.62a2.15,2.15,0,0,1,2.29,1.84Z"/><path id="_Trazado_compuesto_2" data-name="&lt;Trazado compuesto&gt;" class="cls-1" d="M162,12c0,2.71,1.56,4.84,4.5,4.84S171,14.74,171,12s-1.56-4.85-4.5-4.85S162,9.31,162,12m1.62,0c0-2.26,1.29-3.51,2.88-3.51s2.88,1.26,2.88,3.51-1.28,3.49-2.88,3.49-2.88-1.25-2.88-3.49"/><rect id="_Trazado_3" data-name="&lt;Trazado&gt;" class="cls-1" x="172.89" y="3.86" width="1.52" height="12.79"/><path id="_Trazado_compuesto_3" data-name="&lt;Trazado compuesto&gt;" class="cls-1" d="M182.5,13.43c0,.84-.82,2.09-2.83,2.09-.93,0-1.79-.36-1.79-1.36s.86-1.49,1.86-1.67a7.87,7.87,0,0,0,2.76-.63Zm2.47,2a1.33,1.33,0,0,1-.47.09c-.48,0-.48-.33-.48-1V9.72c0-2.17-1.81-2.54-3.48-2.54-2.06,0-3.83.8-3.92,3.1h1.52c.08-1.36,1-1.75,2.32-1.75,1,0,2.06.21,2.06,1.54,0,1.15-1.43,1-3.11,1.36s-3.14.75-3.14,2.85c0,1.84,1.38,2.6,3.07,2.6a4.11,4.11,0,0,0,3.26-1.43c0,1,.5,1.43,1.29,1.43a2.05,2.05,0,0,0,1.09-.25Z"/><path id="_Trazado_compuesto_4" data-name="&lt;Trazado compuesto&gt;" class="cls-1" d="M144.7,32c0,2.2-1,4.45-3.49,4.45-2.25,0-3.54-1.91-3.54-4.45s1.2-4.47,3.54-4.47,3.49,2.18,3.49,4.47M135,38.27h2.64V36.54h.05c.83,1.66,2.66,2.08,4.37,2.08,3.74,0,5.45-3.2,5.45-6.6,0-3.69-1.93-6.72-5.91-6.72a4.6,4.6,0,0,0-3.76,2h0V20.82H135Z"/><path id="_Trazado_compuesto_5" data-name="&lt;Trazado compuesto&gt;" class="cls-1" d="M157.61,34c0,1.76-1.9,2.4-3.13,2.4-1,0-2.57-.37-2.57-1.61,0-1.46,1.08-1.91,2.27-2.1s2.56-.19,3.42-.76ZM160.4,29c0-2.66-2.59-3.66-5.06-3.66-2.79,0-5.55,1-5.74,4.2h2.79c.12-1.37,1.22-2,2.79-2,1.12,0,2.61.27,2.61,1.71,0,1.64-1.78,1.42-3.79,1.78-2.35.27-4.86.78-4.86,3.93,0,2.47,2.05,3.69,4.33,3.69a6.46,6.46,0,0,0,4.37-1.54c.23,1.15,1,1.54,2.15,1.54a7.09,7.09,0,0,0,1.76-.31V36.37a3.91,3.91,0,0,1-.69,0c-.51,0-.66-.27-.66-1Z"/><path id="_Trazado_4" data-name="&lt;Trazado&gt;" class="cls-1" d="M162.13,27.71h2.1v7.45c.05,2.1.59,3.23,3.49,3.23.61,0,1.2-.1,1.81-.15V36.09a4.64,4.64,0,0,1-1.17.1c-1.25,0-1.35-.59-1.35-1.74V27.71h2.52V25.64H167V21.85h-2.78v3.79h-2.1Z"/><polygon id="_Trazado_5" data-name="&lt;Trazado&gt;" class="cls-1" points="170.16 38.27 173.44 38.27 176.54 33.6 179.74 38.27 183.09 38.27 178.25 31.48 182.55 25.64 179.32 25.64 176.56 29.52 173.93 25.64 170.55 25.64 174.92 31.63 170.16 38.27"/><path id="_Trazado_compuesto_6" data-name="&lt;Trazado compuesto&gt;" class="cls-1" d="M184.72,38.27h2.78V25.64h-2.78Zm0-14.81h2.78V20.82h-2.78Z"/><rect id="_Trazado_6" data-name="&lt;Trazado&gt;" class="cls-1" x="190.6" y="20.82" width="2.79" height="17.45"/><rect id="_Trazado_7" data-name="&lt;Trazado&gt;" class="cls-1" x="196.49" y="20.82" width="2.78" height="17.45"/><path id="_Trazado_compuesto_7" data-name="&lt;Trazado compuesto&gt;" class="cls-1" d="M213.77,32.68c.47-3.79-2-7.38-6-7.38-3.76,0-6.11,3.08-6.11,6.67,0,3.89,2.22,6.65,6.18,6.65a5.53,5.53,0,0,0,5.71-4.3H211a2.93,2.93,0,0,1-3.08,2.1c-2.33,0-3.4-1.76-3.4-3.74Zm-9.29-1.84a3.25,3.25,0,1,1,6.5,0Z"/><path id="_Trazado_8" data-name="&lt;Trazado&gt;" class="cls-1" d="M215.88,38.27h2.78v-6c0-2.79,1.52-4.32,3.42-4.32a10.28,10.28,0,0,1,1.2.12V25.37a7.19,7.19,0,0,0-1-.07,4.07,4.07,0,0,0-3.69,2.79h-.05V25.64h-2.61Z"/><path id="_Trazado_compuesto_8" data-name="&lt;Trazado compuesto&gt;" class="cls-1" d="M232.27,34c0,1.76-1.91,2.4-3.13,2.4-1,0-2.57-.37-2.57-1.61,0-1.46,1.08-1.91,2.27-2.1s2.56-.19,3.42-.76ZM235.06,29c0-2.66-2.59-3.66-5.06-3.66-2.79,0-5.55,1-5.74,4.2H227c.12-1.37,1.22-2,2.79-2,1.12,0,2.61.27,2.61,1.71,0,1.64-1.78,1.42-3.79,1.78-2.34.27-4.86.78-4.86,3.93,0,2.47,2.05,3.69,4.33,3.69a6.47,6.47,0,0,0,4.37-1.54c.22,1.15,1,1.54,2.15,1.54a7.09,7.09,0,0,0,1.76-.31V36.37a3.91,3.91,0,0,1-.69,0c-.52,0-.66-.27-.66-1Z"/><path id="_Trazado_9" data-name="&lt;Trazado&gt;" class="cls-1" d="M236.78,27.71h2.11v7.45c0,2.1.58,3.23,3.49,3.23.61,0,1.2-.1,1.81-.15V36.09a4.65,4.65,0,0,1-1.17.1c-1.24,0-1.35-.59-1.35-1.74V27.71h2.52V25.64h-2.52V21.85h-2.78v3.79h-2.11Z"/><path id="_Trazado_10" data-name="&lt;Trazado&gt;" class="cls-1" d="M245.5,34.22c0,3,2.42,4.4,5.6,4.4,2.61,0,5.64-1.1,5.64-4.1,0-2.49-2-3.23-4.08-3.69s-4.11-.66-4.11-2c0-1.1,1.5-1.3,2.3-1.3,1.22,0,2.32.37,2.57,1.69h2.91c-.34-2.81-2.69-3.89-5.28-3.89-2.3,0-5.28.86-5.28,3.62,0,2.56,2,3.3,4.06,3.74s4.06.63,4.13,2.1-1.76,1.66-2.81,1.66c-1.49,0-2.71-.59-2.86-2.2Z"/><path id="_Trazado_compuesto_9" data-name="&lt;Trazado compuesto&gt;" class="cls-1" d="M0,38.39l0,0v0ZM8,0H0V6.6A22,22,0,0,1,8,0M36.57,38.39,44.63,0H27.32c4.24,2.33,6.95,6.53,6.95,12.64h-5.7c0-6.72-4.38-10-10.62-10C6,2.62.13,13.6.13,23.92c0,8.28,4.08,14,12.66,14,7,0,11.4-4,13.26-10.68h5.7a20.35,20.35,0,0,1-6.17,11.17ZM66.85,0H50.34L42.27,38.39H58.86c-3.6-3.22-5.59-8.11-5.59-14.47,0-10.36,5-19.8,13.58-23.92M124.8,38.39V0H86.15c4.24,2.33,7,6.53,7,12.64H87.4c0-6.72-4.38-10-10.62-10C64.85,2.62,59,13.6,59,23.92c0,8.28,4.08,14,12.66,14,7,0,11.4-4,13.26-10.68h5.7a20.34,20.34,0,0,1-6.17,11.17Z"/></g></g></g></svg>