<svg id="Capa_1" xmlns="http://www.w3.org/2000/svg" viewBox="480 -850.8 235 37"><style>.st0{fill:#f69d4a}</style><g id="XMLID_2583_"><g id="XMLID_2585_"><g id="XMLID_3695_"><path id="XMLID_3708_" class="st0" d="M611.9-828.3h4.7c1.6 0 2.4.6 2.4 2.3 0 1.5-1 2.3-2.4 2.3h-4.7v-4.6zm-2.9 14.2h7.6c4.3 0 6.1-2 6.1-4.6 0-2.2-1.1-3.8-3.1-4.3 1.5-.6 2.4-1.8 2.4-3.5 0-2.7-1.9-4.1-4.9-4.1h-8v16.5zm2.9-7.5h5.1c1.8 0 2.8.9 2.8 2.5 0 1.7-1 2.6-2.8 2.6h-5.1v-5.1z"/><path id="XMLID_3704_" class="st0" d="M634.9-822.9c0-2.5-2.5-3.5-4.8-3.5-2.6 0-5.2.9-5.4 4h2.6c.1-1.3 1.2-1.9 2.6-1.9 1.1 0 2.5.3 2.5 1.6 0 1.5-1.7 1.3-3.6 1.7-2.2.3-4.6.7-4.6 3.7 0 2.3 1.9 3.5 4.1 3.5 1.4 0 3.1-.4 4.1-1.5.2 1.1 1 1.5 2 1.5.4 0 1.3-.2 1.7-.3v-1.8h-.6c-.5 0-.6-.3-.6-.9v-6.1zm-2.6 4.7c0 1.7-1.8 2.3-3 2.3-.9 0-2.4-.3-2.4-1.5 0-1.4 1-1.8 2.2-2 1.2-.2 2.4-.2 3.2-.7v1.9z"/><path id="XMLID_3702_" class="st0" d="M637.8-814.1h2.6v-5.7c0-2.6 1.4-4.1 3.2-4.1.4 0 .8.1 1.1.1v-2.5c-.2 0-.4-.1-1-.1-1.6 0-3.2 1.4-3.5 2.6v-2.3h-2.5v12z"/><path id="XMLID_3701_" class="st0" d="M656.2-822.1c-.3-2.9-2.6-4.3-5.4-4.3-3.9 0-5.9 2.8-5.9 6.4 0 3.5 2.1 6.2 5.8 6.2 3.1 0 5-1.7 5.5-4.8h-2.6c-.3 1.7-1.3 2.7-2.8 2.7-2.3 0-3.2-2.1-3.2-4.1 0-3.6 1.9-4.3 3.3-4.3 1.5 0 2.5.8 2.7 2.2h2.6z"/><path id="XMLID_3696_" class="st0" d="M660.4-821.2c.1-1.8 1.3-3.2 3.1-3.2s2.9 1.5 3 3.2h-6.1zm8.8 1.8c.4-3.6-1.9-7-5.6-7-3.6 0-5.8 2.9-5.8 6.3 0 3.7 2.1 6.3 5.8 6.3 2.6 0 4.8-1.5 5.4-4.1h-2.5c-.5 1.3-1.4 2-2.9 2-2.2 0-3.2-1.7-3.2-3.5h8.8z"/></g><path id="XMLID_3659_" class="st0" d="M671.3-830.6h2.6v16.5h-2.6z"/><g id="XMLID_3569_"><path id="XMLID_3637_" class="st0" d="M682.2-813.8c3.8 0 6-2.6 6-6.3 0-3.7-2.2-6.3-6-6.3s-6 2.6-6 6.3c0 3.7 2.2 6.3 6 6.3m0-2.1c-2.4 0-3.4-2.2-3.4-4.2 0-2.1 1-4.2 3.4-4.2s3.4 2.2 3.4 4.2c0 2.1-1 4.2-3.4 4.2"/><path id="XMLID_3636_" class="st0" d="M690.5-814.1h2.6v-7.1c0-1.8 1.1-3.1 2.9-3.1 1.5 0 2.3.8 2.3 2.7v7.5h2.6v-8.2c0-2.7-1.6-4.1-4.2-4.1-1.6 0-2.9.8-3.7 2.1v-1.8h-2.5v12z"/><path id="XMLID_3627_" class="st0" d="M713.7-822.9c0-2.5-2.5-3.5-4.8-3.5-2.6 0-5.2.9-5.4 4h2.6c.1-1.3 1.2-1.9 2.6-1.9 1.1 0 2.5.3 2.5 1.6 0 1.5-1.7 1.3-3.6 1.7-2.2.3-4.6.7-4.6 3.7 0 2.3 1.9 3.5 4.1 3.5 1.4 0 3.1-.4 4.1-1.5.2 1.1 1 1.5 2 1.5.4 0 1.3-.2 1.7-.3v-1.8h-.6c-.5 0-.6-.3-.6-.9v-6.1zm-2.6 4.7c0 1.7-1.8 2.3-3 2.3-.9 0-2.4-.3-2.4-1.5 0-1.4 1-1.8 2.2-2 1.2-.2 2.4-.2 3.2-.7v1.9z"/><path id="XMLID_3622_" class="st0" d="M610.6-843.8c.1-1.4 1-2.5 2.6-2.5 1.5 0 2.5 1.1 2.6 2.5h-5.2zm5.1 2.5c-.3 1.2-1.1 1.7-2.3 1.7-2 0-2.8-1.4-2.8-2.9h6.7c.1-2.2-.9-5.1-4.1-5.1-2.4 0-4.2 2-4.2 4.7.1 2.7 1.4 4.7 4.3 4.7 2 0 3.4-1.1 3.8-3.1h-1.4z"/><path id="XMLID_3621_" class="st0" d="M618.2-841.2c.1 2.2 1.8 3 3.8 3 1.8 0 3.8-.7 3.8-2.8 0-1.7-1.5-2.2-2.9-2.5-1.4-.3-2.9-.5-2.9-1.6 0-.9 1-1.1 1.9-1.1 1 0 2 .4 2.1 1.5h1.5c-.1-2.2-1.7-2.8-3.7-2.8-1.6 0-3.3.7-3.3 2.5 0 1.7 1.5 2.2 2.9 2.5 1.5.3 2.9.5 2.9 1.7 0 1.1-1.3 1.3-2.2 1.3-1.2 0-2.4-.4-2.4-1.7h-1.5z"/><path id="XMLID_3614_" class="st0" d="M635.1-844.5c-.2-2.1-1.8-3.1-3.9-3.1-2.8 0-4.2 2.1-4.2 4.8 0 2.7 1.5 4.6 4.2 4.6 2.3 0 3.6-1.3 4-3.5h-1.5c-.2 1.4-1 2.2-2.5 2.2-1.9 0-2.6-1.6-2.6-3.3 0-1.8.7-3.5 2.8-3.5 1.2 0 2 .7 2.2 1.8h1.5z"/><path id="XMLID_3570_" class="st0" d="M637.9-842.9c0-2.2 1.2-3.4 2.8-3.4 1.5 0 2.8 1.2 2.8 3.4s-1.2 3.4-2.8 3.4c-1.6 0-2.8-1.2-2.8-3.4m-1.6 0c0 2.6 1.5 4.7 4.4 4.7 2.8 0 4.4-2.1 4.4-4.7s-1.5-4.7-4.4-4.7c-2.9 0-4.4 2.1-4.4 4.7"/></g><path id="XMLID_3568_" class="st0" d="M646.8-850.8h1.5v12.4h-1.5z"/><path id="XMLID_3565_" class="st0" d="M658.5-839.6c-.2.1-.3.1-.5.1-.5 0-.5-.3-.5-1v-4.6c0-2.1-1.8-2.5-3.4-2.5-2 0-3.7.8-3.8 3h1.5c.1-1.3 1-1.7 2.2-1.7.9 0 2 .2 2 1.5 0 1.1-1.4 1-3 1.3-1.5.3-3 .7-3 2.8 0 1.8 1.3 2.5 3 2.5 1.2 0 2.3-.4 3.2-1.4 0 1 .5 1.4 1.2 1.4.5 0 .8-.1 1.1-.2v-1.2zm-2.4-1.9c0 .8-.8 2-2.7 2-.9 0-1.7-.3-1.7-1.3 0-1.1.8-1.4 1.8-1.6 1-.2 2.1-.2 2.7-.6v1.5z"/><path id="XMLID_2587_" class="st0" d="M572.3-813.8h5.2l.9-4.4h-.1c-1.6 2.1-3.7 3.5-6 4.4m-30 0h6.1c-.9-.7-1.4-1.9-1.3-3.4l-.1-.1c-1.2 1.6-2.7 2.8-4.7 3.5m-9.5-7.7c0 2.8 2.6 4.2 5.4 4.2 3.8 0 6.6-1.3 8.4-3.9 1.6-2.3 1.9-4.9 2.6-7.7h-.2c-2.1 1.3-6 1.6-9.6 2-3.5.5-6.6 1.6-6.6 5.4M485-839.2h-5v25.4h4c-1.9-.6-3.2-1.9-3.2-4.4 0-.9.1-1.6.3-2.5l3.9-18.5zm1-4.4l1.5-7.2H480v11.6l.9-4.3h5.1zm10 29.8l7.8-37h-11.5l-1.5 7.2h6l-.9 4.3h-6l-3.7 17.6c-.1.7-.2 1.3-.2 2 0 1.6 1.4 2 2.9 2 1 0 1.9-.2 2.8-.5l-.8 4.4h5.1zm11.7-22.6c-1.7 1.5-2.7 3.9-3.3 6.2l-3.4 16.4h14.9l3.8-17.3c.2-1.1.7-3.6.7-4.6 0-2.8-2.3-4.2-5.2-4.2-2.8 0-5.7 1.5-7.5 3.5m92.6 22.6v-37h-91.5l-2.6 11.6.1.1c2.5-3.4 6.5-5.2 10.6-5.2 5.6 0 8.3 2.4 8.3 7.7 0 1.3-.3 3.5-.9 5.8l-3.6 16.9h11.8c-2.7-1.1-4.7-3.5-4.7-7.6 0-8.7 8.5-9.2 15.1-9.8 5.2-.5 7.5-.8 7.5-4.7 0-3.2-3.4-3.9-6-3.9-3.8 0-7.5 1.5-8 5.4h-4.9c1-6.6 6.6-9.7 12.9-9.7 5.8 0 10.9 1.6 10.9 7.6 0 1.7-.6 3.8-.9 5.4l-1.9 8.2c-.2 1.2-.8 2.9-.8 4.3s.6 1.8 1.4 1.8c.5 0 1.1-.2 1.6-.4l-.7 3.5h9c-2.5-1.1-3.8-3.3-3.8-6.9 0-1.3.3-3.5.9-5.8l3.6-17.1h4.9l-3.8 17.5c-.2 1.1-.7 3.6-.7 4.6 0 2.8 2.3 4.2 5.2 4.2 5.4 0 9.7-4.7 10.7-9.7l3.5-16.5h4.9l-6.3 29.8h18.2z"/></g></g></svg>